<svg width="600" height="600" viewBox="0 0 589 587" fill="none" xmlns="http://www.w3.org/2000/svg">
<g opacity="0.5">
<ellipse opacity="0.1" cx="294.5" cy="292.944" rx="294.5" ry="292.944" fill="#3837BF"/>
<path opacity="0.1" d="M588.5 293.939C588.5 455.449 456.874 586.383 294.5 586.383C132.126 586.383 0.5 455.449 0.5 293.939C0.5 132.429 132.126 1.49487 294.5 1.49487C456.874 1.49487 588.5 132.429 588.5 293.939Z" stroke="#D9D9F9"/>
<ellipse opacity="0.2" cx="294.5" cy="292.944" rx="239.624" ry="238.358" fill="#2A28AD"/>
<path opacity="0.1" d="M533.624 293.939C533.624 425.302 426.567 531.797 294.5 531.797C162.433 531.797 55.3757 425.302 55.3757 293.939C55.3757 162.576 162.433 56.0806 294.5 56.0806C426.567 56.0806 533.624 162.576 533.624 293.939Z" stroke="#A6A5EA"/>
<ellipse opacity="0.2" cx="294.5" cy="292.944" rx="189.626" ry="188.624" fill="#863C81"/>
<path opacity="0.1" d="M483.626 293.939C483.626 397.834 398.954 482.063 294.5 482.063C190.046 482.063 105.374 397.834 105.374 293.939C105.374 190.043 190.046 105.814 294.5 105.814C398.954 105.814 483.626 190.043 483.626 293.939Z" stroke="#8584CF"/>
</g>
</svg>
