<svg width="32" height="20" viewBox="0 0 32 20" fill="none" xmlns="http://www.w3.org/2000/svg">
<path d="M2.00005 8.69838C1.28122 8.69838 0.698486 9.28111 0.698486 9.99994C0.698486 10.7187 1.28122 11.3015 2.00005 11.3015V8.69838ZM30.9203 10.9202C31.4286 10.412 31.4286 9.58789 30.9203 9.0796L22.6374 0.796502C22.1291 0.28821 21.3049 0.28821 20.7966 0.796502C20.2883 1.30479 20.2883 2.1289 20.7966 2.63719L28.1593 9.99994L20.7966 17.3626C20.2883 17.8709 20.2883 18.695 20.7966 19.2033C21.3049 19.7116 22.1291 19.7116 22.6374 19.2033L30.9203 10.9202ZM2.00005 11.3015H30V8.69838H2.00005V11.3015Z" fill="white"/>
</svg>
