<svg width="91" height="77" viewBox="0 0 91 77" fill="none" xmlns="http://www.w3.org/2000/svg">
<circle cx="78" cy="16" r="4" fill="#FD60A4"/>
<circle cx="83.5" cy="2.5" r="2.5" fill="#869DDA"/>
<circle cx="5" cy="63" r="5" fill="#FD60A4"/>
<circle cx="11" cy="29" r="3" fill="#FD60A4"/>
<path fill-rule="evenodd" clip-rule="evenodd" d="M16 10V72C16 74.7614 18.2386 77 21 77H51C53.7614 77 56 74.7614 56 72V10C56 7.23857 53.7614 5 51 5H21C18.2386 5 16 7.23858 16 10ZM17.5 66H54.5001V12H17.5001L17.5 66ZM39 73H33C31.8954 73 31 72.1046 31 71C31 69.8954 31.8954 69 33 69H39C40.1046 69 41 69.8954 41 71C41 72.1046 40.1046 73 39 73ZM30.5 9H41.5C41.7761 9 42 8.77614 42 8.5C42 8.22386 41.7761 8 41.5 8H30.5C30.2239 8 30 8.22386 30 8.5C30 8.77614 30.2239 9 30.5 9Z" fill="url(#paint0_linear_91_31)"/>
<circle cx="73.5" cy="43.5" r="17.5" fill="url(#paint1_linear_91_31)"/>
<path d="M64 40L66 43L84 37L64 40Z" fill="#161939"/>
<path d="M66 48L67 44L84 37L66 43V48Z" fill="black"/>
<path d="M66 48L67 44L69 46L66 48Z" fill="#0F1228"/>
<path d="M72 49L84 37L67 44L69 46L72 49Z" fill="#161939"/>
<path d="M34 50.881C33.1798 50.7533 32.4144 50.523 31.7037 50.1899C30.5514 49.6273 29.6461 48.8397 28.9877 47.827C28.3292 46.8143 28 45.6329 28 44.2827L31.0007 44.3165C31.083 45.3291 31.6488 46.1617 32.2867 46.8143C32.9451 47.4669 34.4198 47.7595 35.5926 47.7595C36.8066 47.7595 37.7531 47.4444 38.4321 46.8143C39.1111 46.1617 39.4506 45.3291 39.4506 44.3165C39.4506 43.5288 39.2346 42.8875 38.8025 42.3924C38.3909 41.8973 37.8662 41.5148 37.2284 41.2447C36.6111 40.9747 35.7469 40.6821 34.6358 40.3671C33.2366 39.962 32.0947 39.557 31.2099 39.1519C30.3457 38.7243 29.6049 38.0717 28.9877 37.1941C28.3704 36.3165 28.0617 35.1463 28.0617 33.6835C28.0617 32.3333 28.3704 31.1519 28.9877 30.1392C29.6049 29.1266 30.4691 28.3502 31.5803 27.8101C32.3112 27.4549 33.1177 27.2164 34 27.0949V25H37V27.1192C38.3836 27.3418 39.5606 27.8759 40.5309 28.7215C41.8683 29.8467 42.6091 31.3994 42.7531 33.3797H39.5432C39.4815 32.5246 39.1111 31.7257 38.4321 31.1181C37.7531 30.5106 36.179 30.2743 35.0679 30.2743C34.0597 30.2743 33.2366 30.5556 32.5988 31.1181C31.9609 31.6807 31.642 32.4909 31.642 33.5485C31.642 34.2686 31.8375 34.865 32.2284 35.3376C32.6399 35.7876 33.1543 36.1477 33.7716 36.4177C34.3889 36.6878 35.2325 36.9803 36.3025 37.2954C37.7222 37.7229 38.8745 38.1505 39.7593 38.5781C40.6646 39.0056 41.4259 39.6695 42.0432 40.5696C42.6811 41.4473 43 42.6287 43 44.1139C43 45.3066 42.7016 46.4318 42.1049 47.4895C41.5288 48.5471 40.6749 49.4023 39.5432 50.0549C38.79 50.482 37.9423 50.7643 37 50.9019V53H34V50.881Z" fill="url(#paint2_linear_91_31)"/>
<path d="M34 50.881C33.1798 50.7533 32.4144 50.523 31.7037 50.1899C30.5514 49.6273 29.6461 48.8397 28.9877 47.827C28.3292 46.8143 28 45.6329 28 44.2827L31.0007 44.3165C31.083 45.3291 31.6488 46.1617 32.2867 46.8143C32.9451 47.4669 34.4198 47.7595 35.5926 47.7595C36.8066 47.7595 37.7531 47.4444 38.4321 46.8143C39.1111 46.1617 39.4506 45.3291 39.4506 44.3165C39.4506 43.5288 39.2346 42.8875 38.8025 42.3924C38.3909 41.8973 37.8662 41.5148 37.2284 41.2447C36.6111 40.9747 35.7469 40.6821 34.6358 40.3671C33.2366 39.962 32.0947 39.557 31.2099 39.1519C30.3457 38.7243 29.6049 38.0717 28.9877 37.1941C28.3704 36.3165 28.0617 35.1463 28.0617 33.6835C28.0617 32.3333 28.3704 31.1519 28.9877 30.1392C29.6049 29.1266 30.4691 28.3502 31.5803 27.8101C32.3112 27.4549 33.1177 27.2164 34 27.0949V25H37V27.1192C38.3836 27.3418 39.5606 27.8759 40.5309 28.7215C41.8683 29.8467 42.6091 31.3994 42.7531 33.3797H39.5432C39.4815 32.5246 39.1111 31.7257 38.4321 31.1181C37.7531 30.5106 36.179 30.2743 35.0679 30.2743C34.0597 30.2743 33.2366 30.5556 32.5988 31.1181C31.9609 31.6807 31.642 32.4909 31.642 33.5485C31.642 34.2686 31.8375 34.865 32.2284 35.3376C32.6399 35.7876 33.1543 36.1477 33.7716 36.4177C34.3889 36.6878 35.2325 36.9803 36.3025 37.2954C37.7222 37.7229 38.8745 38.1505 39.7593 38.5781C40.6646 39.0056 41.4259 39.6695 42.0432 40.5696C42.6811 41.4473 43 42.6287 43 44.1139C43 45.3066 42.7016 46.4318 42.1049 47.4895C41.5288 48.5471 40.6749 49.4023 39.5432 50.0549C38.79 50.482 37.9423 50.7643 37 50.9019V53H34V50.881Z" fill="url(#paint3_linear_91_31)"/>
<defs>
<linearGradient id="paint0_linear_91_31" x1="36" y1="5" x2="36" y2="77" gradientUnits="userSpaceOnUse">
<stop stop-color="#4261E8"/>
<stop offset="1" stop-color="#7E97FE"/>
</linearGradient>
<linearGradient id="paint1_linear_91_31" x1="73.5" y1="26" x2="73.5" y2="61" gradientUnits="userSpaceOnUse">
<stop stop-color="#4564E9"/>
<stop offset="1" stop-color="#7B95FC"/>
</linearGradient>
<linearGradient id="paint2_linear_91_31" x1="35.5" y1="25" x2="35.5" y2="53" gradientUnits="userSpaceOnUse">
<stop stop-color="#405BD9"/>
<stop offset="1" stop-color="#768FF6"/>
</linearGradient>
<linearGradient id="paint3_linear_91_31" x1="35.5" y1="25" x2="35.5" y2="53" gradientUnits="userSpaceOnUse">
<stop stop-color="#405BD9"/>
<stop offset="1" stop-color="#768FF6"/>
</linearGradient>
</defs>
</svg>
