<svg width="103" height="100" viewBox="0 0 103 100" fill="none" xmlns="http://www.w3.org/2000/svg">
<path d="M21.3225 90.2926C55.7734 100.399 81.3225 89.8792 90.814 62.4126C99.0005 38.7292 87.8276 9.93254 58.7462 0.0858667C71.9666 -1.26747 91.5395 13.5825 98.2818 30.0692C106.997 51.3826 100.58 75.3359 82.3496 89.4992C64.9259 103.053 39.7632 103.666 21.3225 90.2926Z" fill="#2A186A"/>
<path d="M81.9969 62.9C79.2172 69.9867 76.2071 75 68.1596 75.9633C51.241 77.9833 34.7325 77.4433 18.7122 71.18C14.2037 69.4167 10.0477 67.0167 6.54605 63.6467C2.07486 59.3333 -0.314966 54.2233 0.654525 47.8267C15.5698 67.53 37.0986 68.06 58.841 67.73C66.5698 67.61 74.0511 65.71 81.9969 62.9Z" fill="url(#paint0_linear_120_418)"/>
<path d="M17.1361 13.8735C15.5294 19.0535 18.4921 21.6335 22.2005 23.6302C28.5768 27.0569 35.5904 28.4835 42.6921 29.2369C54.309 30.4669 65.9022 30.3335 77.3565 27.6435C79.4175 27.1635 81.0277 26.9402 81.9633 29.7169C82.9328 32.5969 81.048 32.8735 79.3972 33.5035C60.4887 40.7302 41.5904 40.7602 22.7531 33.2502C20.4422 32.3235 18.3235 30.9881 16.5022 29.3102C10.9294 24.2269 11.0107 19.2402 17.1361 13.8735Z" fill="url(#paint1_linear_120_418)"/>
<path d="M8.25464 75.0835C26.9834 85.6902 46.458 85.4868 66.3563 83.1402C53.3902 94.1368 13.736 91.5002 8.25464 75.0835Z" fill="url(#paint2_linear_120_418)"/>
<path d="M35.7259 1.20312C30.7496 7.12313 31.509 10.3531 37.8107 13.1198C43.6683 15.6931 49.8208 15.9798 56.0717 15.0965C57.2785 14.9231 58.4446 14.3365 59.6751 14.9331C51.9361 19.8465 34.7022 19.1731 27.8107 13.6998C24.0818 10.7331 24.0819 7.48979 27.9022 4.57979C29.8988 3.04646 32.3056 2.39646 35.7259 1.20312Z" fill="url(#paint3_linear_120_418)"/>
<path d="M3.8954 33.7235L3.93947 33.0568L3.99032 32.4668L4.22421 30.8002L4.41743 29.9868L5.0954 31.1035L5.83777 32.2168L6.17676 32.6768C13.3937 42.4202 24.4581 44.5935 35.7632 46.4668C47.5564 48.4235 58.1361 48.8002 71.4073 46.7235C74.009 46.3366 76.5886 45.8181 79.1361 45.1702C82.0852 44.1035 83.631 43.7935 83.6751 45.2068C83.9395 48.6635 84.6445 51.1002 81.3022 52.3502C75.9389 54.3536 70.3691 55.7754 64.692 56.5902C59.7835 57.3002 54.8615 58.0002 49.8242 57.6868C35.6445 57.2835 22.0513 54.8568 10.3361 46.5735C5.90557 43.4368 3.53269 39.2902 3.8954 33.7368" fill="url(#paint4_linear_120_418)"/>
<defs>
<linearGradient id="paint0_linear_120_418" x1="0.440966" y1="62.42" x2="81.9969" y2="62.42" gradientUnits="userSpaceOnUse">
<stop stop-color="#8A52D9"/>
<stop offset="0.16" stop-color="#8F4DD3"/>
<stop offset="0.37" stop-color="#9D3FC4"/>
<stop offset="0.61" stop-color="#B428AA"/>
<stop offset="0.64" stop-color="#B725A6"/>
</linearGradient>
<linearGradient id="paint1_linear_120_418" x1="12.4277" y1="26.3902" x2="82.2277" y2="26.3902" gradientUnits="userSpaceOnUse">
<stop stop-color="#27B9F2"/>
<stop offset="0.4" stop-color="#3F80F9"/>
<stop offset="0.7" stop-color="#4F59FE"/>
</linearGradient>
<linearGradient id="paint2_linear_120_418" x1="8.25464" y1="82.4335" x2="66.3563" y2="82.4335" gradientUnits="userSpaceOnUse">
<stop stop-color="#BE2CAD"/>
<stop offset="0.23" stop-color="#C32DA7"/>
<stop offset="0.52" stop-color="#D13098"/>
<stop offset="0.83" stop-color="#E73580"/>
</linearGradient>
<linearGradient id="paint3_linear_120_418" x1="25.0174" y1="9.72313" x2="59.6751" y2="9.72313" gradientUnits="userSpaceOnUse">
<stop stop-color="#02EBFE"/>
<stop offset="0.22" stop-color="#08E2FC"/>
<stop offset="0.57" stop-color="#1ACAF6"/>
<stop offset="0.78" stop-color="#27B9F2"/>
</linearGradient>
<linearGradient id="paint4_linear_120_418" x1="3.8615" y1="43.8602" x2="83.9259" y2="43.8602" gradientUnits="userSpaceOnUse">
<stop stop-color="#517CFF"/>
<stop offset="0.63" stop-color="#8A41D9"/>
</linearGradient>
</defs>
</svg>
