<svg width="50" height="50" viewBox="0 0 50 50" fill="none" xmlns="http://www.w3.org/2000/svg">
<path d="M27.6681 12.5226V14.2723C27.012 14.6718 26.8987 15.2814 26.933 15.9953C26.9762 16.8895 26.933 17.7838 26.9464 18.678C26.9747 21.1804 28.843 23.042 31.3435 23.0464C35.9733 23.0554 40.603 23.0464 45.2328 23.0464C46.6925 23.0464 47.702 23.7276 48.1911 24.984C48.3142 25.3177 48.3734 25.6716 48.3655 26.0273C48.3615 32.4748 48.3595 38.9244 48.3595 45.3759C48.3595 47.1256 47.1249 48.3418 45.3625 48.3567C43.8372 48.3701 42.3133 48.3567 40.7879 48.3567C40.5839 48.348 40.3795 48.355 40.1766 48.3776C39.5489 48.4775 39.3058 48.9827 39.6264 49.5237C39.7114 49.6698 39.853 49.7786 39.8605 49.9619H36.8933C36.9022 49.7786 37.0424 49.6728 37.1333 49.5312C37.4569 48.9946 37.2168 48.4789 36.5906 48.3806C36.3133 48.3515 36.0341 48.344 35.7556 48.3582L5.02927 48.3582C4.52529 48.3582 4.02728 48.3493 3.54566 48.1719C2.97119 47.9679 2.47587 47.5877 2.13044 47.0856C1.78501 46.5835 1.60713 45.9851 1.62219 45.3759C1.61324 41.3622 1.62219 37.3485 1.62219 33.3348C1.62219 30.975 1.62219 28.6156 1.62219 26.2568C1.62219 24.2045 2.78075 23.0494 4.84885 23.0464C9.40255 23.0405 13.9568 23.0405 18.5115 23.0464C21.1819 23.0464 23.0353 21.1998 23.0413 18.5275C23.0473 15.8149 23.0473 13.1019 23.0413 10.3883C23.0413 9.28541 22.8549 9.10656 21.7322 9.10209C20.9866 9.10209 20.2411 9.11103 19.4956 9.09464C19.3122 9.09464 19.0781 9.10507 18.9931 8.92622C18.8887 8.71011 19.0855 8.54765 19.2197 8.39861C20.8718 6.56241 22.5239 4.72423 24.176 2.88406C24.8753 2.10308 25.087 2.09861 25.7699 2.85723C27.435 4.71231 29.1 6.5644 30.765 8.41351C30.8873 8.55063 31.0632 8.7116 30.9887 8.89492C30.9022 9.1155 30.6502 9.09016 30.4519 9.09464C29.6333 9.11401 28.8117 9.09463 27.9976 9.10656C27.2014 9.11997 26.9643 9.35546 26.9389 10.1364C26.9315 10.3585 26.9568 10.5836 26.9389 10.8041C26.8584 11.5181 27.0075 12.1261 27.6681 12.5226Z" fill="#50B268"/>
<path d="M27.6683 12.5223C26.9646 12.339 26.7827 12.111 26.7737 11.3971C26.7737 10.9509 26.7737 10.5038 26.7737 10.0557C26.7737 9.24789 27.0809 8.93788 27.8771 8.9349C28.8791 8.9349 29.8811 8.9349 30.8741 8.9349C30.9353 8.79629 30.8383 8.74264 30.7817 8.68004C28.9685 6.66201 27.1534 4.64597 25.3363 2.63192C25.1872 2.4635 25.059 2.14902 24.7399 2.50225C22.8492 4.62014 20.9451 6.7261 18.9561 8.9349H21.9322C22.9551 8.9349 23.2056 9.18827 23.2056 10.2226C23.2056 12.9918 23.2056 15.76 23.2056 18.5272C23.2056 21.3128 21.3 23.2086 18.5087 23.2086C13.9362 23.2086 9.36356 23.2086 4.79097 23.2086C2.85259 23.2086 1.78499 24.2758 1.78499 26.2044C1.78499 32.5387 1.78499 38.8739 1.78499 45.2102C1.78499 47.0866 2.88241 48.191 4.75817 48.191L35.9214 48.191C36.0511 48.191 36.1808 48.191 36.3105 48.191C36.8175 48.1597 37.2514 48.282 37.4288 48.8125C37.6063 49.3431 37.326 49.6979 36.895 49.9617C36.6908 49.9617 36.4865 49.9766 36.2822 49.9766C25.7225 49.9766 15.1633 49.9766 4.60459 49.9766C1.94453 49.9766 0.00167847 48.039 0.000190735 45.3741C0.000190735 38.9266 0.000190735 32.4785 0.000190735 26.03C0.000190735 23.3472 1.92664 21.4306 4.60608 21.4276C9.21644 21.4276 13.8268 21.4276 18.4372 21.4276C20.3293 21.4276 21.4193 20.3455 21.4193 18.4646C21.4193 16.068 21.4044 13.67 21.4327 11.2734C21.4327 10.789 21.2926 10.6996 20.8467 10.7115C19.6017 10.7428 18.3552 10.7115 17.1101 10.7249C16.6822 10.7249 16.3437 10.6027 16.1544 10.1973C15.965 9.79189 16.0992 9.45208 16.3825 9.13164C18.9938 6.23129 21.6052 3.33093 24.2165 0.430573C24.7414 -0.150692 25.2454 -0.14175 25.7777 0.446964C28.3791 3.32844 30.9785 6.21439 33.5759 9.10481C33.8563 9.41631 34.0233 9.74718 33.8443 10.1645C33.6654 10.5818 33.3031 10.7294 32.8528 10.7264C31.5883 10.7145 30.318 10.7443 29.0595 10.71C28.6286 10.6996 28.5376 10.8307 28.5511 11.2361C28.5779 12.1274 28.4124 12.3331 27.6683 12.5223Z" fill="#120D4F"/>
<path d="M39.8611 49.9619C39.4391 49.6981 39.1439 49.3494 39.3243 48.8039C39.5047 48.2584 39.9356 48.1764 40.4411 48.1809C42.0812 48.1928 43.7125 48.1883 45.3482 48.1809C47.0793 48.1809 48.1961 47.0526 48.1961 45.3103C48.1961 38.9015 48.1961 32.4927 48.1961 26.0839C48.1961 24.3282 47.0659 23.2044 45.293 23.2029C40.7025 23.2029 36.1115 23.2029 31.5201 23.2029C28.6587 23.2029 26.78 21.322 26.7755 18.456C26.7755 17.4335 26.7755 16.4126 26.7755 15.3902C26.7755 14.6777 26.9634 14.4512 27.6701 14.2649C28.3769 14.4482 28.5648 14.6733 28.5648 15.3872C28.5648 16.4648 28.5648 17.5438 28.5648 18.6214C28.5752 20.2802 29.7099 21.4159 31.3754 21.4174C36.0037 21.4174 40.6324 21.4174 45.2617 21.4174C48.0828 21.4279 49.9809 23.3177 49.9824 26.1391C49.9839 32.5136 49.9436 38.8866 50.0003 45.2597C50.0256 48.1168 47.713 50.102 45.2706 49.9962C43.4709 49.9098 41.6652 49.9664 39.8611 49.9619Z" fill="#120D4F"/>
<path d="M4.46173 36.5746V34.8278C5.13719 34.4105 5.23262 33.7726 5.19385 33.0393C5.15508 32.3061 5.19385 31.5489 5.1849 30.8037C5.16766 30.618 5.2176 30.4323 5.32566 30.2802C5.43373 30.1282 5.59275 30.0199 5.77387 29.975C6.42128 29.7683 7.01037 29.411 7.49276 28.9325C7.97514 28.4539 8.33705 27.8678 8.54874 27.2222C8.69785 26.787 8.96773 26.5903 9.41952 26.6112C9.60441 26.6186 9.79079 26.6112 9.97717 26.6112L39.9923 26.6112C40.1786 26.6112 40.365 26.6216 40.5499 26.6112C40.9972 26.5888 41.2701 26.7691 41.4222 27.2073C41.6292 27.8573 41.9891 28.4482 42.4716 28.9305C42.9542 29.4128 43.5453 29.7725 44.1956 29.9795C44.6429 30.1286 44.792 30.4043 44.792 30.8544C44.792 34.0866 44.792 37.3198 44.792 40.554C44.792 41.0369 44.5907 41.2992 44.1359 41.4483C43.5032 41.6457 42.9282 41.9943 42.4605 42.4638C41.9929 42.9333 41.6467 43.5097 41.452 44.143C41.3029 44.602 41.0241 44.8122 40.5469 44.7853C40.362 44.7749 40.1757 44.7853 39.9893 44.7853L9.98463 44.7853C9.78036 44.7853 9.57459 44.7853 9.37032 44.7853C9.19356 44.8019 9.0167 44.7548 8.87156 44.6526C8.72643 44.5504 8.62253 44.3998 8.57856 44.2279C8.36983 43.5688 8.00631 42.9691 7.51839 42.4791C7.03047 41.989 6.4323 41.6228 5.77387 41.411C5.59275 41.3662 5.43373 41.2579 5.32566 41.1059C5.2176 40.9538 5.16766 40.7681 5.1849 40.5824C5.1849 39.8371 5.15359 39.0919 5.19385 38.3467C5.23411 37.6015 5.13719 36.9934 4.46173 36.5746Z" fill="#70BC82"/>
<path d="M4.46109 36.5749C5.13803 36.724 5.35573 36.9654 5.35573 37.6182C5.35573 38.6407 5.36617 39.6631 5.35573 40.684C5.35573 40.9821 5.40344 41.1222 5.72701 41.2221C7.25087 41.6901 8.27225 42.6991 8.75088 44.2238C8.84183 44.5218 8.94173 44.6247 9.26828 44.6247C19.7554 44.6147 30.2426 44.6147 40.7297 44.6247C41.0562 44.6247 41.1606 44.5129 41.2501 44.2253C41.7257 42.6976 42.7411 41.6915 44.271 41.2206C44.5319 41.1446 44.6318 41.0536 44.6318 40.7466C44.6184 37.3827 44.6229 34.0189 44.6318 30.655C44.6318 30.418 44.6124 30.2854 44.3142 30.1945C42.7426 29.7265 41.6959 28.6832 41.2188 27.1197C41.1248 26.8097 40.9876 26.7754 40.7193 26.7754C30.2331 26.7814 19.746 26.7814 9.25784 26.7754C8.92981 26.7754 8.83289 26.8902 8.74193 27.1778C8.2633 28.704 7.24043 29.7116 5.71806 30.181C5.39301 30.2809 5.34231 30.427 5.34678 30.7176C5.3602 31.7385 5.34678 32.761 5.34678 33.7834C5.34678 34.4436 5.13058 34.691 4.45215 34.8267C3.77968 34.6896 3.55751 34.4392 3.55751 33.7834C3.55751 32.3923 3.55751 30.9988 3.55751 29.6028C3.55751 28.9082 3.81844 28.628 4.50284 28.5595C6.0118 28.4223 6.98845 27.4491 7.12413 25.9482C7.18676 25.2597 7.46558 24.9944 8.15297 24.9944L41.7898 24.9944C42.51 24.9944 42.7695 25.2403 42.847 25.9781C43.0095 27.4908 43.9668 28.4268 45.4951 28.5639C46.1378 28.6206 46.4106 28.9112 46.4106 29.5715C46.4106 33.6592 46.4106 37.7469 46.4106 41.8346C46.4106 42.4964 46.1467 42.7751 45.4936 42.8407C43.925 42.9912 42.9916 43.9212 42.8425 45.4817C42.7784 46.1375 42.4981 46.4072 41.8435 46.4072L8.16489 46.4072C7.47453 46.4072 7.20018 46.1449 7.13606 45.4534C7.00037 43.954 6.04162 42.9912 4.51477 42.8421C3.82441 42.7706 3.57093 42.4979 3.56944 41.7989C3.56944 40.4078 3.56944 39.0143 3.56944 37.6182C3.57093 36.9654 3.78862 36.715 4.46109 36.5749Z" fill="#120D4F"/>
<path d="M29.8856 33.9383C29.993 34.5226 30.2867 35.0681 30.242 35.6851C29.747 36.0622 29.5412 36.5674 29.3995 37.1755C29.0849 38.5273 28.4378 39.6988 27.2226 40.4887C26.3551 41.0684 25.2982 41.2933 24.2697 41.1169C23.2413 40.9405 22.3198 40.3764 21.6952 39.5408C20.8412 38.4468 20.3763 37.0996 20.3739 35.712C20.3715 34.3244 20.8317 32.9755 21.6818 31.8786C23.5874 29.3642 27.3762 29.792 28.8777 32.7296C29.1252 33.2274 29.4085 33.6537 29.8856 33.9383Z" fill="#A8D2AA"/>
<path d="M29.8857 33.9386C29.3698 33.9162 29.1014 33.6032 28.921 33.1531C28.6849 32.5356 28.3102 31.9804 27.8258 31.5303C27.3414 31.0802 26.7601 30.7472 26.1267 30.5568C24.658 30.0769 23.3772 30.457 22.2723 31.46C19.9433 33.5719 19.9552 37.8345 22.2723 39.9554C24.0005 41.5367 26.4473 41.3996 28.0159 39.626C28.7284 38.834 29.1898 37.8485 29.3415 36.7942C29.425 36.2338 29.6218 35.7942 30.2361 35.6794C31.0025 35.8284 31.2455 36.1519 31.1307 36.9135C30.8489 38.7899 29.9945 40.3533 28.5184 41.5502C26.1327 43.4877 22.8911 43.2075 20.744 40.9152C17.6828 37.6497 18.2181 32.0383 21.7877 29.5672C25.1307 27.257 29.4205 29.2691 30.6223 32.6494C30.8638 33.2962 30.6074 33.7061 29.8857 33.9386Z" fill="#120D4F"/>
</svg>
