<svg width="50" height="50" viewBox="0 0 50 50" fill="none" xmlns="http://www.w3.org/2000/svg">
<path d="M22.3324 37.4776V35.7279C22.9885 35.3285 23.1018 34.7189 23.0675 34.005C23.0243 33.1107 23.0675 32.2165 23.0541 31.3222C23.0258 28.8198 21.1575 26.9583 18.6569 26.9538C14.0272 26.9449 9.39745 26.9538 4.7677 26.9538C3.30795 26.9538 2.2985 26.2727 1.80943 25.0163C1.68624 24.6825 1.62706 24.3286 1.63498 23.973C1.63896 17.5254 1.64094 11.0759 1.64094 4.62435C1.64094 2.8746 2.87554 1.65842 4.63798 1.64351C6.16334 1.6301 7.6872 1.64351 9.21256 1.64351C9.41657 1.65222 9.62095 1.64524 9.82389 1.62265C10.4516 1.52279 10.6947 1.01754 10.3741 0.476513C10.2891 0.330452 10.1475 0.221652 10.14 0.0383301H13.1072C13.0983 0.221652 12.9581 0.327471 12.8672 0.469061C12.5436 1.00561 12.7837 1.5213 13.4099 1.61966C13.6872 1.64874 13.9664 1.65622 14.2449 1.64202H44.9712C45.4752 1.64202 45.9732 1.65096 46.4548 1.82832C47.0293 2.03231 47.5246 2.41251 47.87 2.91464C48.2155 3.41677 48.3934 4.01515 48.3783 4.62435C48.3872 8.63805 48.3783 12.6517 48.3783 16.6654C48.3783 19.0253 48.3783 21.3846 48.3783 23.7434C48.3783 25.7957 47.2197 26.9508 45.1516 26.9538C40.5979 26.9598 36.0437 26.9598 31.489 26.9538C28.8185 26.9538 26.9651 28.8004 26.9592 31.4728C26.9532 34.1853 26.9532 36.8984 26.9592 39.6119C26.9592 40.7148 27.1456 40.8937 28.2683 40.8982C29.0139 40.8982 29.7594 40.8892 30.5049 40.9056C30.6883 40.9056 30.9224 40.8952 31.0074 41.074C31.1118 41.2901 30.915 41.4526 30.7808 41.6016C29.1287 43.4378 27.4766 45.276 25.8245 47.1162C25.1252 47.8972 24.9134 47.9016 24.2305 47.143C22.5655 45.2879 20.9005 43.4358 19.2355 41.5867C19.1132 41.4496 18.9373 41.2886 19.0118 41.1053C19.0983 40.8847 19.3503 40.9101 19.5486 40.9056C20.3672 40.8862 21.1888 40.9056 22.0029 40.8937C22.7991 40.8803 23.0362 40.6448 23.0615 39.8638C23.069 39.6417 23.0437 39.4167 23.0615 39.1961C23.1421 38.4822 22.993 37.8741 22.3324 37.4776Z" fill="#50B268"/>
<path d="M22.3321 37.4779C23.0359 37.6612 23.2178 37.8893 23.2268 38.6032C23.2268 39.0493 23.2268 39.4964 23.2268 39.9445C23.2268 40.7524 22.9196 41.0624 22.1234 41.0653C21.1214 41.0653 20.1194 41.0653 19.1264 41.0653C19.0652 41.204 19.1621 41.2576 19.2188 41.3202C21.0319 43.3382 22.8471 45.3543 24.6642 47.3683C24.8133 47.5367 24.9415 47.8512 25.2606 47.498C27.1513 45.3801 29.0553 43.2741 31.0444 41.0653H28.0683C27.0454 41.0653 26.7949 40.812 26.7949 39.7776C26.7949 37.0084 26.7949 34.2402 26.7949 31.473C26.7949 28.6874 28.7005 26.7916 31.4917 26.7916C36.0643 26.7916 40.6369 26.7916 45.2095 26.7916C47.1479 26.7916 48.2155 25.7245 48.2155 23.7959C48.2155 17.4616 48.2155 11.1263 48.2155 4.79004C48.2155 2.9136 47.1181 1.8092 45.2423 1.8092H14.0791C13.9494 1.8092 13.8197 1.8092 13.6899 1.8092C13.183 1.8405 12.7491 1.71829 12.5716 1.1877C12.3942 0.65711 12.6745 0.30239 13.1055 0.0385858C13.3097 0.0385858 13.514 0.0236816 13.7183 0.0236816C24.278 0.0236816 34.8372 0.0236816 45.3959 0.0236816C48.056 0.0236816 49.9988 1.96123 50.0003 4.62609C50.0003 11.0736 50.0003 17.5217 50.0003 23.9702C50.0003 26.653 48.0738 28.5697 45.3944 28.5727C40.784 28.5727 36.1737 28.5727 31.5633 28.5727C29.6712 28.5727 28.5812 29.6547 28.5812 31.5356C28.5812 33.9322 28.5961 36.3303 28.5678 38.7269C28.5678 39.2113 28.7079 39.3007 29.1538 39.2888C30.3988 39.2575 31.6453 39.2888 32.8904 39.2753C33.3183 39.2753 33.6568 39.3976 33.8461 39.803C34.0355 40.2084 33.9013 40.5482 33.618 40.8686C31.0067 43.769 28.3953 46.6693 25.784 49.5697C25.2591 50.1509 24.7551 50.142 24.2228 49.5533C21.6214 46.6718 19.022 43.7859 16.4246 40.8954C16.1442 40.5839 15.9772 40.2531 16.1562 39.8357C16.3351 39.4184 16.6974 39.2709 17.1477 39.2739C18.4121 39.2858 19.6825 39.256 20.941 39.2903C21.3719 39.3007 21.4629 39.1695 21.4494 38.7641C21.4226 37.8729 21.5881 37.6672 22.3321 37.4779Z" fill="#120D4F"/>
<path d="M10.1394 0.0383159C10.5614 0.30212 10.8566 0.650878 10.6762 1.19637C10.4958 1.74186 10.0649 1.82384 9.55941 1.81937C7.91924 1.80744 6.28802 1.81191 4.65232 1.81937C2.9212 1.81937 1.80439 2.94761 1.80439 4.68991C1.80439 11.0987 1.80439 17.5075 1.80439 23.9163C1.80439 25.672 2.93462 26.7958 4.70749 26.7973C9.29798 26.7973 13.889 26.7973 18.4804 26.7973C21.3418 26.7973 23.2205 28.6782 23.225 31.5443C23.225 32.5667 23.225 33.5876 23.225 34.6101C23.225 35.3225 23.0371 35.549 22.3304 35.7353C21.6236 35.552 21.4357 35.327 21.4357 34.6131C21.4357 33.5355 21.4357 32.4564 21.4357 31.3788C21.4253 29.72 20.2906 28.5843 18.6251 28.5828C13.9968 28.5828 9.36806 28.5828 4.7388 28.5828C1.91771 28.5724 0.0195903 26.6825 0.0180992 23.8612C0.0166082 17.4867 0.0568668 11.1136 0.000206468 4.74059C-0.0251416 1.88345 2.2875 -0.101783 4.72986 0.00403629C6.52957 0.0904806 8.33525 0.0338447 10.1394 0.0383159Z" fill="#120D4F"/>
<path d="M45.5388 13.4256V15.1724C44.8633 15.5897 44.7679 16.2276 44.8066 16.9609C44.8454 17.6942 44.8066 18.4513 44.8156 19.1965C44.8328 19.3822 44.7829 19.568 44.6748 19.72C44.5668 19.8721 44.4077 19.9804 44.2266 20.0252C43.5792 20.2319 42.9901 20.5892 42.5077 21.0678C42.0253 21.5463 41.6634 22.1325 41.4517 22.778C41.3026 23.2132 41.0328 23.4099 40.581 23.3891C40.3961 23.3816 40.2097 23.3891 40.0233 23.3891H10.0082C9.82184 23.3891 9.63546 23.3786 9.45057 23.3891C9.00325 23.4114 8.73039 23.2311 8.5783 22.7929C8.37124 22.143 8.01137 21.5521 7.52884 21.0697C7.04631 20.5874 6.45516 20.2277 5.80492 20.0207C5.3576 19.8717 5.2085 19.596 5.2085 19.1459C5.2085 15.9136 5.2085 12.6804 5.2085 9.44621C5.2085 8.96331 5.40979 8.701 5.86456 8.55196C6.49727 8.35453 7.07233 8.00598 7.53997 7.53646C8.00762 7.06694 8.35377 6.49059 8.54848 5.85728C8.69758 5.39823 8.97641 5.18808 9.45355 5.21491C9.63844 5.22534 9.82482 5.21491 10.0112 5.21491H40.0159C40.2201 5.21491 40.4259 5.21491 40.6302 5.21491C40.8069 5.19838 40.9838 5.24544 41.1289 5.34762C41.2741 5.44981 41.378 5.60041 41.4219 5.77233C41.6307 6.43148 41.9942 7.03113 42.4821 7.52117C42.97 8.01122 43.5682 8.37743 44.2266 8.58922C44.4077 8.63407 44.5668 8.74234 44.6748 8.89439C44.7829 9.04644 44.8328 9.23218 44.8156 9.41789C44.8156 10.1631 44.8469 10.9083 44.8066 11.6535C44.7664 12.3987 44.8633 13.0068 45.5388 13.4256Z" fill="#70BC82"/>
<path d="M45.5394 13.4253C44.8625 13.2763 44.6448 13.0348 44.6448 12.382C44.6448 11.3596 44.6343 10.3372 44.6448 9.31623C44.6448 9.01814 44.597 8.87804 44.2735 8.77818C42.7496 8.31019 41.7282 7.30118 41.2496 5.77648C41.1587 5.4784 41.0588 5.37556 40.7322 5.37556C30.2451 5.38549 19.7579 5.38549 9.27079 5.37556C8.94425 5.37556 8.83987 5.48734 8.75041 5.77499C8.27476 7.30267 7.25935 8.3087 5.72952 8.77968C5.46858 8.85569 5.36868 8.9466 5.36868 9.25363C5.3821 12.6175 5.37763 15.9814 5.36868 19.3453C5.36868 19.5822 5.38807 19.7149 5.68628 19.8058C7.25786 20.2738 8.30458 21.3171 8.78172 22.8805C8.87566 23.1905 9.01284 23.2248 9.28123 23.2248C19.7674 23.2189 30.2545 23.2189 40.7426 23.2248C41.0707 23.2248 41.1676 23.1101 41.2586 22.8224C41.7372 21.2962 42.7601 20.2887 44.2824 19.8192C44.6075 19.7193 44.6582 19.5733 44.6537 19.2827C44.6403 18.2617 44.6537 17.2393 44.6537 16.2169C44.6537 15.5566 44.8699 15.3092 45.5483 15.1736C46.2208 15.3107 46.443 15.5611 46.443 16.2169C46.443 17.6079 46.443 19.0015 46.443 20.3975C46.443 21.092 46.182 21.3722 45.4976 21.4408C43.9887 21.5779 43.012 22.5511 42.8764 24.052C42.8137 24.7406 42.5349 25.0059 41.8475 25.0059H8.21065C7.49046 25.0059 7.23102 24.7599 7.15348 24.0222C6.99096 22.5094 6.0337 21.5734 4.50536 21.4363C3.86271 21.3797 3.58984 21.089 3.58984 20.4288C3.58984 16.3411 3.58984 12.2533 3.58984 8.16562C3.58984 7.50388 3.85376 7.22517 4.50685 7.15959C6.07544 7.00906 7.00885 6.07904 7.15796 4.51857C7.22207 3.86278 7.50239 3.59302 8.15697 3.59302H41.8356C42.526 3.59302 42.8003 3.85533 42.8644 4.54689C43.0001 6.04625 43.9589 7.00906 45.4857 7.1581C46.1761 7.22964 46.4296 7.50239 46.4311 8.20139C46.4311 9.59245 46.4311 10.986 46.4311 12.382C46.4296 13.0348 46.2119 13.2852 45.5394 13.4253Z" fill="#120D4F"/>
<path d="M20.1149 16.0619C20.0075 15.4777 19.7138 14.9322 19.7585 14.3151C20.2535 13.9381 20.4593 13.4328 20.601 12.8247C20.9156 11.4729 21.5627 10.3014 22.7779 9.51152C23.6454 8.93183 24.7023 8.70699 25.7308 8.88336C26.7592 9.05973 27.6807 9.62387 28.3053 10.4594C29.1592 11.5534 29.6242 12.9007 29.6266 14.2883C29.629 15.6759 29.1688 17.0247 28.3187 18.1217C26.4131 20.636 22.6243 20.2083 21.1228 17.2706C20.8753 16.7728 20.592 16.3466 20.1149 16.0619Z" fill="#A8D2AA"/>
<path d="M20.1148 16.0617C20.6307 16.084 20.8991 16.397 21.0795 16.8471C21.3156 17.4647 21.6903 18.0198 22.1747 18.4699C22.6591 18.92 23.2404 19.2531 23.8738 19.4434C25.3425 19.9233 26.6233 19.5433 27.7282 18.5402C30.0572 16.4283 30.0453 12.1657 27.7282 10.0448C26 8.4635 23.5532 8.60062 21.9846 10.3742C21.2721 11.1662 20.8107 12.1517 20.659 13.206C20.5755 13.7664 20.3787 14.2061 19.7644 14.3208C18.998 14.1718 18.7549 13.8484 18.8698 13.0868C19.1516 11.2103 20.0059 9.6469 21.4821 8.45009C23.8678 6.51254 27.1094 6.79274 29.2565 9.08501C32.3176 12.3505 31.7824 17.9619 28.2128 20.4331C24.8698 22.7432 20.58 20.7311 19.3782 17.3509C19.1367 16.704 19.3931 16.2942 20.1148 16.0617Z" fill="#120D4F"/>
</svg>
