<svg width="50" height="50" viewBox="0 0 50 50" fill="none" xmlns="http://www.w3.org/2000/svg">
<path d="M22.2692 0C22.8623 0.172485 23.3967 0.504373 23.8141 0.959502C24.1411 1.33854 24.3507 1.80449 24.4172 2.30054C24.4838 2.79658 24.4046 3.30127 24.1891 3.75305C23.983 4.24542 23.6299 4.66224 23.178 4.94665C22.7262 5.23106 22.1975 5.3692 21.6642 5.34223C19.6643 5.34223 17.6644 5.34223 15.6645 5.34223C13.3546 5.34223 8.73487 5.34223 8.73487 5.34223C6.0003 5.34223 4.99388 7 5.0003 9C5.0353 19.8943 5.0003 19.5 5.0003 19.5C5.0003 19.6599 5.0003 22 5.0003 22C5.0003 22 5.0203 23.1649 5.0003 23C4.98781 22.7886 4.98781 24.2114 5.0003 24C5.0003 19.0626 5.0003 25 5.0003 25C5.16813 24.9752 0 25 0 25L0.00030221 6.34671C0.0567811 5.58976 0.225273 4.84538 0.500277 4.13785C0.943785 3.12978 1.62073 2.24154 2.47526 1.54642C3.32979 0.851299 4.33742 0.369212 5.41503 0.139927C5.83501 0.0349818 6.29999 0.0999481 6.73997 0H22.2692Z" fill="#5E78F0"/>
<path d="M0.000488281 24.9871C0.991179 24.9871 4.50049 24.9871 5.00049 24.9871C5.00049 30.2243 5.00049 35.7694 5.00049 41C5.00049 41.2049 5.00049 42 5.00049 42C5.21048 43.7491 6.67516 44.6219 8.43007 44.6219C12.8532 44.6219 17.2763 44.6219 21.6994 44.6219C22.382 44.6375 23.033 44.9126 23.5199 45.391C24.0068 45.8694 24.2931 46.5152 24.3205 47.1971C24.3478 47.879 24.1143 48.5457 23.6673 49.0616C23.2203 49.5775 22.5935 49.9038 21.9144 49.9741C16.9696 49.9741 12.0249 50.0491 7.08014 49.9441C3.7753 49.8741 0.00054553 47 0.00054553 44L0.000488281 24.9871Z" fill="#3F35AB"/>
<path d="M49.9977 24.9871C50.0169 25.4829 49.9249 25.9767 49.7285 26.4323C49.5322 26.888 49.2364 27.294 48.8627 27.6207L36.3634 40.1142C36.2501 40.2439 36.1282 40.3658 35.9984 40.479C35.6244 40.8204 35.171 41.0627 34.6793 41.1841C34.1877 41.3054 33.6734 41.3018 33.1835 41.1737C32.8392 41.0757 32.52 40.905 32.2474 40.6731C31.9749 40.4411 31.7553 40.1534 31.6036 39.8293C31.4519 39.5052 31.3716 39.1523 31.3682 38.7945C31.3647 38.4368 31.4382 38.0824 31.5836 37.7555C31.7872 37.2462 32.0995 36.7875 32.4986 36.4111C34.9618 33.9424 37.4283 31.467 39.8982 28.985C40.0306 28.8645 40.1481 28.7286 40.2482 28.5802C40.3006 28.4976 40.3311 28.4031 40.3368 28.3054C40.3424 28.2078 40.3231 28.1103 40.2805 28.0223C40.238 27.9342 40.1736 27.8584 40.0936 27.8022C40.0136 27.7459 39.9205 27.7109 39.8232 27.7007C39.6451 27.6881 39.4663 27.6881 39.2882 27.7007H16.4993C15.4044 27.7007 14.3945 27.4658 13.6545 26.5812C13.4486 26.3734 13.2908 26.1229 13.1923 25.8475C13.0938 25.572 13.057 25.2783 13.0845 24.9871C13.3364 24.8351 13.635 24.78 13.9245 24.8322H49.0527C49.3727 24.8372 49.7127 24.7572 49.9977 24.9871Z" fill="#3F35AB"/>
<path d="M49.9976 24.9871H13.0845C13.1126 24.2993 13.3979 23.6471 13.8839 23.1595C14.3699 22.6718 15.0214 22.3842 15.7093 22.3535C16.0043 22.3535 16.2943 22.3535 16.5893 22.3535H39.2432C39.4211 22.371 39.6003 22.371 39.7781 22.3535C39.8959 22.3406 40.0078 22.295 40.101 22.2219C40.1942 22.1489 40.2651 22.0512 40.3057 21.9399C40.3463 21.8286 40.3549 21.7082 40.3306 21.5923C40.3063 21.4764 40.25 21.3696 40.1681 21.284C40.0595 21.1613 39.9444 21.0445 39.8231 20.9342L32.4985 13.553C32.1844 13.2686 31.9299 12.9247 31.7497 12.5412C31.5694 12.1578 31.4671 11.7424 31.4486 11.3192C31.4187 10.9231 31.487 10.5257 31.6476 10.1624C31.8082 9.79904 32.056 9.48091 32.369 9.23622C32.6821 8.99153 33.0507 8.82784 33.4422 8.75968C33.8337 8.69152 34.236 8.72099 34.6134 8.84547C35.2451 9.01211 35.8213 9.34319 36.2833 9.80498C40.5164 14.0461 44.7546 18.2906 48.9977 22.5384C49.3264 22.854 49.5852 23.235 49.7574 23.6568C49.9297 24.0785 50.0115 24.5317 49.9976 24.9871V24.9871Z" fill="#5E78F0"/>
</svg>
