<svg width="40" height="40" viewBox="0 0 40 40" fill="none" xmlns="http://www.w3.org/2000/svg">
<path d="M8.21399 36.1169C21.7654 40.1596 31.8154 35.9516 35.5489 24.965C38.7691 15.4916 34.3742 3.973 22.9348 0.0343466C28.1352 -0.506985 35.8343 5.433 38.4864 12.0276C41.9146 20.553 39.3905 30.1343 32.2194 35.7996C25.3657 41.2209 15.4677 41.4662 8.21399 36.1169Z" fill="#2A186A"/>
<path d="M32.0807 25.1599C30.9873 27.9946 29.8032 29.9999 26.6377 30.3853C19.9826 31.1932 13.4889 30.9772 7.1872 28.4719C5.41377 27.7666 3.779 26.8066 2.40159 25.4586C0.642819 23.7333 -0.297236 21.6893 0.0841199 19.1306C5.95113 27.0119 14.4196 27.2239 22.9721 27.0919C26.0123 27.0439 28.9551 26.2839 32.0807 25.1599Z" fill="url(#paint0_linear_126_713)"/>
<path d="M6.56722 5.54944C5.93518 7.62143 7.10059 8.65343 8.55934 9.4521C11.0675 10.8228 13.8263 11.3934 16.6198 11.6948C21.1894 12.1868 25.7497 12.1334 30.2553 11.0574C31.066 10.8654 31.6994 10.7761 32.0674 11.8868C32.4487 13.0388 31.7074 13.1494 31.058 13.4014C23.6202 16.2921 16.1865 16.3041 8.77668 13.3001C7.86767 12.9294 7.0343 12.3952 6.31787 11.7241C4.12574 9.69076 4.15775 7.6961 6.56722 5.54944Z" fill="url(#paint1_linear_126_713)"/>
<path d="M3.07361 30.0333C10.4407 34.276 18.1012 34.1946 25.9283 33.256C20.828 37.6546 5.22973 36.6 3.07361 30.0333Z" fill="url(#paint2_linear_126_713)"/>
<path d="M13.8797 0.481262C11.9222 2.84926 12.2209 4.14125 14.6997 5.24792C17.0038 6.27725 19.424 6.39191 21.8828 6.03858C22.3575 5.96925 22.8162 5.73458 23.3002 5.97325C20.256 7.93857 13.477 7.66924 10.7661 5.47991C9.29938 4.29325 9.29938 2.99592 10.8021 1.83193C11.5875 1.21859 12.5342 0.958594 13.8797 0.481262Z" fill="url(#paint3_linear_126_713)"/>
<path d="M1.35887 13.4894L1.37621 13.2227L1.39621 12.9867L1.48821 12.32L1.56422 11.9947L1.8309 12.4414L2.12292 12.8867L2.25626 13.0707C5.09509 16.968 9.44734 17.8373 13.8943 18.5867C18.5332 19.3693 22.6948 19.52 27.9151 18.6893C28.9385 18.5346 29.9532 18.3272 30.9553 18.068C32.1153 17.6413 32.7234 17.5173 32.7407 18.0827C32.8447 19.4653 33.1221 20.44 31.8073 20.94C29.6976 21.7414 27.5067 22.3101 25.2736 22.636C23.3428 22.92 21.4067 23.2 19.4253 23.0747C13.8476 22.9133 8.50062 21.9427 3.89235 18.6293C2.14958 17.3747 1.2162 15.716 1.35887 13.4947" fill="url(#paint4_linear_126_713)"/>
<defs>
<linearGradient id="paint0_linear_126_713" x1="0.000115" y1="24.9679" x2="32.0807" y2="24.9679" gradientUnits="userSpaceOnUse">
<stop stop-color="#8A52D9"/>
<stop offset="0.16" stop-color="#8F4DD3"/>
<stop offset="0.37" stop-color="#9D3FC4"/>
<stop offset="0.61" stop-color="#B428AA"/>
<stop offset="0.64" stop-color="#B725A6"/>
</linearGradient>
<linearGradient id="paint1_linear_126_713" x1="4.71511" y1="10.5561" x2="32.1714" y2="10.5561" gradientUnits="userSpaceOnUse">
<stop stop-color="#27B9F2"/>
<stop offset="0.4" stop-color="#3F80F9"/>
<stop offset="0.7" stop-color="#4F59FE"/>
</linearGradient>
<linearGradient id="paint2_linear_126_713" x1="3.07361" y1="32.9733" x2="25.9283" y2="32.9733" gradientUnits="userSpaceOnUse">
<stop stop-color="#BE2CAD"/>
<stop offset="0.23" stop-color="#C32DA7"/>
<stop offset="0.52" stop-color="#D13098"/>
<stop offset="0.83" stop-color="#E73580"/>
</linearGradient>
<linearGradient id="paint3_linear_126_713" x1="9.66741" y1="3.88925" x2="23.3002" y2="3.88925" gradientUnits="userSpaceOnUse">
<stop stop-color="#02EBFE"/>
<stop offset="0.22" stop-color="#08E2FC"/>
<stop offset="0.57" stop-color="#1ACAF6"/>
<stop offset="0.78" stop-color="#27B9F2"/>
</linearGradient>
<linearGradient id="paint4_linear_126_713" x1="1.34554" y1="17.544" x2="32.8394" y2="17.544" gradientUnits="userSpaceOnUse">
<stop stop-color="#517CFF"/>
<stop offset="0.63" stop-color="#8A41D9"/>
</linearGradient>
</defs>
</svg>
