<svg width="1255" height="750" viewBox="0 0 1255 750" fill="none" xmlns="http://www.w3.org/2000/svg">
<g filter="url(#filter0_f_112_350)">
<rect x="50" y="50" width="1155" height="650" rx="50" fill="url(#paint0_linear_112_350)"/>
</g>
<rect x="53" y="51.9114" width="1150" height="645.221" rx="50" fill="#0F0B30"/>
<path d="M1153 697.132H261C811 649.338 1153 548.014 1193 71.0291C1199 78.6761 1203 88.7129 1203 99.7055V649.338C1203 676.581 1180 697.132 1153 697.132Z" fill="url(#paint1_linear_112_350)" fill-opacity="0.8"/>
<path d="M1022.6 554.212L1056.11 554.212L1056.41 606.811L1022.9 606.811L1022.6 554.212Z" fill="#FF5F00"/>
<path d="M1026.21 580.517C1026.18 575.452 1027.34 570.452 1029.62 565.897C1031.9 561.341 1035.22 557.349 1039.35 554.222C1034.19 550.344 1028.01 547.932 1021.52 547.263C1015.02 546.593 1008.47 547.693 1002.61 550.436C996.754 553.18 991.827 557.456 988.395 562.776C984.962 568.096 983.161 574.245 983.198 580.521C983.235 586.797 985.109 592.947 988.605 598.267C992.101 603.587 997.078 607.863 1002.97 610.606C1008.86 613.349 1015.42 614.449 1021.91 613.779C1028.4 613.11 1034.55 610.699 1039.66 606.82C1035.5 603.692 1032.12 599.699 1029.79 595.141C1027.46 590.584 1026.24 585.583 1026.21 580.516L1026.21 580.517Z" fill="#EB001B"/>
<path d="M1095.81 580.516C1095.85 586.793 1094.04 592.943 1090.61 598.263C1087.17 603.583 1082.25 607.859 1076.39 610.602C1070.53 613.345 1063.98 614.444 1057.48 613.773C1050.98 613.103 1044.8 610.69 1039.65 606.811C1043.77 603.681 1047.1 599.688 1049.38 595.132C1051.66 590.576 1052.82 585.577 1052.79 580.512C1052.77 575.446 1051.54 570.447 1049.21 565.892C1046.88 561.336 1043.51 557.342 1039.35 554.212C1044.46 550.333 1050.61 547.92 1057.1 547.25C1063.59 546.58 1070.15 547.679 1076.04 550.421C1081.93 553.164 1086.91 557.44 1090.41 562.76C1093.9 568.081 1095.77 574.231 1095.81 580.507L1095.81 580.516Z" fill="#F79E1B"/>
<defs>
<filter id="filter0_f_112_350" x="0" y="0" width="1255" height="750" filterUnits="userSpaceOnUse" color-interpolation-filters="sRGB">
<feFlood flood-opacity="0" result="BackgroundImageFix"/>
<feBlend mode="normal" in="SourceGraphic" in2="BackgroundImageFix" result="shape"/>
<feGaussianBlur stdDeviation="25" result="effect1_foregroundBlur_112_350"/>
</filter>
<linearGradient id="paint0_linear_112_350" x1="50" y1="375" x2="1205" y2="375" gradientUnits="userSpaceOnUse">
<stop stop-color="#00F0FF"/>
<stop offset="0.484375" stop-color="#5773FF"/>
<stop offset="1" stop-color="#FF007A"/>
</linearGradient>
<linearGradient id="paint1_linear_112_350" x1="261" y1="697.132" x2="1187.36" y2="244.981" gradientUnits="userSpaceOnUse">
<stop stop-color="#00F0FF"/>
<stop offset="0.34375" stop-color="#5773FF"/>
<stop offset="0.90625" stop-color="#FF007A"/>
</linearGradient>
</defs>
</svg>
