<svg width="1150" height="645" viewBox="0 0 1150 645" fill="none" xmlns="http://www.w3.org/2000/svg">
<rect width="1150" height="645" rx="50" fill="#0F0B30"/>
<path d="M1100 645H208C758 597.222 1100 495.934 1140 19.1113C1146 26.7558 1150 36.7891 1150 47.778V597.222C1150 624.456 1127 645 1100 645Z" fill="url(#paint0_linear_190_75)" fill-opacity="0.8"/>
<path d="M969.604 502.129L1003.11 502.129L1003.41 554.71L969.904 554.71L969.604 502.129Z" fill="#FF5F00"/>
<path d="M973.213 528.425C973.179 523.362 974.344 518.364 976.62 513.81C978.896 509.256 982.223 505.265 986.35 502.139C981.192 498.262 975.012 495.852 968.516 495.182C962.019 494.513 955.468 495.613 949.611 498.355C943.754 501.097 938.827 505.372 935.395 510.69C931.962 516.008 930.161 522.155 930.198 528.429C930.235 534.703 932.109 540.851 935.605 546.169C939.101 551.487 944.078 555.762 949.967 558.504C955.857 561.246 962.421 562.346 968.91 561.676C975.399 561.007 981.55 558.596 986.661 554.72C982.496 551.593 979.121 547.6 976.791 543.044C974.461 538.489 973.237 533.489 973.213 528.425L973.213 528.425Z" fill="#EB001B"/>
<path d="M1042.81 528.424C1042.85 534.699 1041.04 540.847 1037.61 546.165C1034.17 551.483 1029.25 555.758 1023.39 558.5C1017.53 561.242 1010.98 562.34 1004.48 561.67C997.982 561 991.803 558.588 986.647 554.71C990.773 551.581 994.1 547.589 996.377 543.035C998.655 538.481 999.823 533.483 999.795 528.42C999.766 523.356 998.54 518.359 996.211 513.805C993.881 509.25 990.508 505.258 986.347 502.129C991.459 498.251 997.611 495.839 1004.1 495.169C1010.59 494.499 1017.15 495.598 1023.04 498.34C1028.93 501.082 1033.91 505.356 1037.41 510.674C1040.9 515.993 1042.77 522.141 1042.81 528.415L1042.81 528.424Z" fill="#F79E1B"/>
<rect width="83.6855" height="57.3342" rx="5.79092" transform="matrix(1 4.47056e-10 0.00548623 0.999985 97 189.024)" fill="url(#paint1_linear_190_75)"/>
<path opacity="0.8" d="M128.161 210.293L138.959 210.293M128.161 210.293L128.202 217.691M128.161 210.293L118.675 203.357L97.0786 203.357M149.758 210.293L138.959 210.293M149.758 210.293L149.798 217.691M149.758 210.293L161.867 203.357L180.764 203.357M149.839 225.088L139.041 225.088M149.839 225.088L149.798 217.691M149.839 225.088L162.025 232.024L180.921 232.024M128.242 225.088L139.041 225.088M128.242 225.088L128.202 217.691M128.242 225.088L118.832 232.024L97.2359 232.024M138.959 210.293L138.843 189.024M139.041 225.088L139.157 246.357M149.798 217.691L180.843 217.691M128.202 217.691L97.1573 217.691" stroke="#7A6245" stroke-width="1.10027"/>
<defs>
<linearGradient id="paint0_linear_190_75" x1="208" y1="645" x2="1134.24" y2="192.754" gradientUnits="userSpaceOnUse">
<stop stop-color="#00F0FF"/>
<stop offset="0.34375" stop-color="#5773FF"/>
<stop offset="0.90625" stop-color="#FF007A"/>
</linearGradient>
<linearGradient id="paint1_linear_190_75" x1="-1.48668" y1="4.32793" x2="72.498" y2="68.9075" gradientUnits="userSpaceOnUse">
<stop offset="0.00596827" stop-color="#FFDBB0"/>
<stop offset="1" stop-color="#FFC580"/>
</linearGradient>
</defs>
</svg>
