<svg width="596" height="434" viewBox="0 0 596 434" fill="none" xmlns="http://www.w3.org/2000/svg">
<path d="M20.8108 187.423C13.6637 160.749 29.4929 133.333 56.1662 126.186L510.151 4.54056L574.856 246.022C582.003 272.695 566.174 300.112 539.501 307.259L85.5156 428.904L20.8108 187.423Z" fill="url(#paint0_linear_227_41)"/>
<path d="M24.4056 163.611C19.6104 136.416 37.7688 110.483 64.9635 105.688L527.823 24.0736L571.235 270.275C576.03 297.47 557.872 323.403 530.677 328.198L67.8176 409.813L24.4056 163.611Z" fill="url(#paint1_linear_227_41)"/>
<path d="M39.9647 139.031C37.558 111.522 57.9075 87.2701 85.4167 84.8634L533.704 45.6433L555.493 294.692C557.9 322.201 537.55 346.453 510.041 348.86L61.7537 388.08L39.9647 139.031Z" fill="url(#paint2_linear_227_41)"/>
<rect width="67.3715" height="44.0728" rx="5.79092" transform="matrix(0.996195 -0.0871558 0.0917256 0.995784 100.041 187.247)" fill="url(#paint3_linear_227_41)"/>
<path opacity="0.8" d="M126.438 201.349L135.098 200.592M126.438 201.349L126.96 207.012M126.438 201.349L118.371 196.704L101.051 198.219M143.758 199.834L135.098 200.592M143.758 199.834L144.28 205.497M143.758 199.834L153.012 193.673L168.167 192.347M144.801 211.16L136.141 211.918M144.801 211.16L144.28 205.497M144.801 211.16L155.033 215.616L170.188 214.291M127.481 212.675L136.141 211.918M127.481 212.675L126.96 207.012M127.481 212.675L120.393 218.647L103.073 220.162M135.098 200.592L133.598 184.311M136.141 211.918L137.641 228.198M144.28 205.497L169.177 203.319M126.96 207.012L102.062 209.191" stroke="#7A6245" stroke-width="1.10027"/>
<path d="M427.744 108.323L450.516 106.331L453.857 142.605L431.085 144.598L427.744 108.323Z" fill="#FF5F00"/>
<path d="M431.76 126.258C431.436 122.765 431.93 119.247 433.206 115.968C434.482 112.689 436.505 109.737 439.124 107.334C435.388 104.965 431.045 103.668 426.589 103.593C422.134 103.517 417.747 104.665 413.93 106.906C410.113 109.147 407.019 112.391 405.002 116.266C402.986 120.14 402.128 124.491 402.527 128.819C402.925 133.147 404.565 137.279 407.257 140.742C409.949 144.205 413.586 146.859 417.752 148.402C421.918 149.944 426.445 150.313 430.815 149.465C435.185 148.617 439.222 146.588 442.465 143.608C439.448 141.697 436.917 139.142 435.062 136.136C433.207 133.13 432.078 129.752 431.76 126.258L431.76 126.258Z" fill="#EB001B"/>
<path d="M478.122 136.613L478.054 135.87L478.382 135.841L478.368 135.687L477.586 135.755L477.601 135.909L477.909 135.882L477.978 136.626L478.122 136.613ZM479.64 136.48L479.558 135.583L479.321 135.604L479.104 136.269L478.769 135.652L478.533 135.673L478.615 136.57L478.786 136.555L478.723 135.876L479.033 136.436L479.211 136.421L479.413 135.815L479.476 136.494L479.64 136.48Z" fill="#F79E1B"/>
<path d="M479.065 122.12C479.464 126.448 478.606 130.799 476.589 134.674C474.572 138.549 471.478 141.792 467.66 144.033C463.842 146.274 459.455 147.422 454.999 147.345C450.544 147.269 446.2 145.972 442.464 143.602C445.082 141.197 447.105 138.244 448.381 134.965C449.657 131.686 450.153 128.167 449.831 124.674C449.509 121.181 448.378 117.804 446.523 114.799C444.668 111.795 442.138 109.24 439.123 107.328C442.366 104.347 446.403 102.316 450.773 101.468C455.144 100.62 459.671 100.988 463.837 102.53C468.003 104.072 471.641 106.727 474.334 110.19C477.027 113.653 478.666 117.785 479.065 122.113L479.065 122.12Z" fill="#F79E1B"/>
<g filter="url(#filter0_i_227_41)">
<path d="M110.521 285.845L112.147 285.703L110.798 271.053L108.502 271.254L108.35 269.605L110.407 269.425C111.219 269.354 111.801 269.479 112.153 269.802C112.52 270.123 112.734 270.618 112.796 271.288L114.108 285.531L115.59 285.402L115.74 287.027L110.671 287.47L110.521 285.845ZM120.831 282.221C120.71 280.914 121.056 279.953 121.866 279.336L128.358 274.455L127.905 269.532L121.617 270.082L121.885 272.998L120.02 273.161L119.602 268.62L126.56 268.012C127.739 267.908 128.587 268.043 129.103 268.415C129.585 268.759 129.874 269.456 129.971 270.508L130.228 273.304C130.33 274.403 130.012 275.226 129.275 275.772L122.588 280.887L122.944 284.758L129.232 284.208L129.03 282.009L131.038 281.834L131.39 285.657L121.229 286.546L120.831 282.221ZM144.578 268.073L139.258 274.417L142.342 274.147C143.394 274.055 144.139 274.207 144.577 274.602C144.998 274.983 145.255 275.683 145.349 276.703L145.761 281.172C145.809 281.698 145.821 282.171 145.795 282.59C145.768 282.994 145.647 283.334 145.431 283.61C145.019 284.192 144.127 284.543 142.756 284.663L139.122 284.981C137.369 285.134 136.351 284.549 136.068 283.225C135.984 282.83 135.921 282.41 135.88 281.964L135.763 280.698L137.509 280.545L137.79 283.604L143.983 283.062L143.298 275.63L137.106 276.171L136.963 274.618L142.355 268.268L136.425 268.787L136.58 270.46L134.834 270.612L134.53 267.314L144.429 266.448L144.578 268.073ZM154.697 281.98L157.327 281.75L157.051 278.763L149.472 279.426L155.801 265.453L157.738 265.284L158.814 276.97L160.536 276.82L160.686 278.445L158.964 278.595L159.239 281.583L160.961 281.432L161.11 283.057L154.846 283.605L154.697 281.98ZM156.153 269.012L152.263 277.543L156.902 277.138L156.153 269.012ZM183.132 270.121C184.041 270.041 184.673 270.187 185.028 270.557C185.332 270.884 185.52 271.446 185.593 272.242L186.119 277.954C186.203 278.862 186.126 279.504 185.887 279.878C185.664 280.251 185.369 280.533 185.001 280.726C184.649 280.918 184.162 281.041 183.541 281.095L179.094 281.484C177.563 281.618 176.642 281.12 176.329 279.991C176.233 279.646 176.166 279.267 176.128 278.852L175.974 277.18L177.839 277.016L178.107 279.932L184.299 279.39L183.593 271.719L175.799 272.401L175.004 263.773L184.017 262.985L184.167 264.61L177.018 265.235L177.514 270.612L183.132 270.121ZM197.702 263.305L191.606 263.839L192.143 269.67L197.355 269.214C198.949 269.074 199.946 269.525 200.347 270.566C200.474 270.892 200.555 271.255 200.592 271.653L201.039 276.504C201.136 277.556 200.944 278.352 200.464 278.892C199.982 279.416 199.143 279.73 197.948 279.834L194.433 280.142C193.206 280.249 192.332 280.093 191.811 279.673C191.289 279.237 190.98 278.501 190.884 277.465L189.768 265.348C189.647 264.026 190.085 263.112 191.082 262.607C191.434 262.416 191.865 262.298 192.375 262.253L196.775 261.869C198.082 261.754 198.9 262.261 199.228 263.388C199.339 263.716 199.412 264.071 199.447 264.453L199.495 264.979L197.87 265.121L197.702 263.305ZM198.535 270.773L192.295 271.319L192.968 278.632L199.208 278.086L198.535 270.773ZM207.807 278.972L205.632 279.162L212.307 262.148L205.852 262.713L206.18 266.274L204.458 266.424L203.98 261.238L213.903 260.37L214.127 262.808L207.807 278.972ZM227.959 265.115C228.016 265.736 227.912 266.267 227.648 266.708C227.399 267.147 227.093 267.399 226.729 267.463C227.178 267.456 227.613 267.643 228.034 268.023C228.524 268.462 228.804 269.056 228.873 269.805L229.247 273.868C229.344 274.919 229.154 275.739 228.678 276.327C228.202 276.915 227.366 277.261 226.171 277.365L222.656 277.673C221.429 277.78 220.551 277.584 220.023 277.084C219.494 276.568 219.181 275.792 219.086 274.757L218.718 270.766C218.648 270.001 218.829 269.351 219.262 268.815C219.59 268.369 219.983 268.101 220.441 268.013C220.087 268.012 219.732 267.818 219.375 267.432C219.017 267.03 218.81 266.526 218.754 265.92L218.47 262.837C218.348 261.515 218.754 260.604 219.688 260.105C220.024 259.915 220.447 259.797 220.957 259.753L224.711 259.424C225.636 259.344 226.363 259.561 226.892 260.077C227.335 260.52 227.596 261.172 227.675 262.032L227.959 265.115ZM226.771 268.447L220.531 268.993L221.192 276.163L227.432 275.617L226.771 268.447ZM220.725 267.169L226.248 266.686L225.711 260.855L220.188 261.338L220.725 267.169ZM246.9 273.986L253.14 273.44L252.535 266.868L247.323 267.324C245.697 267.466 244.699 267.015 244.33 265.971C244.204 265.645 244.122 265.283 244.085 264.885L243.711 260.822C243.614 259.77 243.807 258.982 244.289 258.458C244.769 257.918 245.607 257.596 246.803 257.492L250.317 257.184C251.545 257.077 252.419 257.241 252.942 257.677C253.462 258.098 253.77 258.825 253.866 259.861L254.982 271.978C255.055 272.774 254.895 273.471 254.5 274.068C254.103 274.648 253.395 274.983 252.375 275.073L247.832 275.47C246.924 275.55 246.197 275.34 245.653 274.842C245.179 274.401 244.903 273.759 244.825 272.915L244.777 272.389L246.737 272.217L246.9 273.986ZM246.143 265.765L252.383 265.219L251.782 258.694L245.542 259.24L246.143 265.765ZM265.461 255.859C266.433 255.774 267.159 255.984 267.64 256.488C268.134 256.974 268.43 257.744 268.527 258.795L269.586 270.29C269.692 271.438 269.577 272.283 269.241 272.826C268.906 273.369 268.236 273.685 267.231 273.773L263.119 274.133C261.589 274.267 260.636 273.772 260.259 272.648C260.131 272.306 260.047 271.92 260.008 271.49L258.916 259.636C258.817 258.569 258.922 257.78 259.228 257.272C259.574 256.663 260.257 256.315 261.277 256.225L265.461 255.859ZM262.037 272.589L267.823 272.083L266.471 257.409L260.685 257.915L262.037 272.589ZM280.343 254.557C281.315 254.472 282.042 254.682 282.522 255.186C283.017 255.672 283.312 256.442 283.409 257.493L284.468 268.988C284.574 270.136 284.459 270.981 284.123 271.524C283.788 272.067 283.118 272.383 282.114 272.471L278.001 272.831C276.471 272.965 275.518 272.47 275.141 271.346C275.013 271.004 274.93 270.618 274.89 270.188L273.798 258.334C273.7 257.267 273.804 256.478 274.11 255.97C274.456 255.361 275.139 255.013 276.159 254.923L280.343 254.557ZM276.919 271.287L282.705 270.781L281.354 256.107L275.568 256.613L276.919 271.287ZM295.225 253.255C296.198 253.17 296.924 253.38 297.404 253.884C297.899 254.37 298.195 255.14 298.292 256.191L299.35 267.686C299.456 268.834 299.341 269.679 299.006 270.222C298.67 270.765 298 271.081 296.996 271.169L292.884 271.529C291.353 271.663 290.4 271.168 290.023 270.044C289.896 269.702 289.812 269.316 289.772 268.886L288.68 257.032C288.582 255.965 288.686 255.176 288.993 254.668C289.338 254.059 290.021 253.711 291.041 253.621L295.225 253.255ZM291.801 269.985L297.587 269.479L296.236 254.805L290.45 255.311L291.801 269.985ZM320.857 251.013C321.829 250.928 322.556 251.137 323.036 251.641C323.531 252.128 323.826 252.897 323.923 253.949L324.982 265.444C325.088 266.591 324.973 267.436 324.637 267.98C324.302 268.523 323.632 268.839 322.628 268.926L318.515 269.286C316.985 269.42 316.032 268.925 315.655 267.802C315.527 267.46 315.444 267.073 315.404 266.643L314.312 254.79C314.214 253.722 314.318 252.934 314.624 252.425C314.97 251.817 315.653 251.468 316.673 251.379L320.857 251.013ZM317.433 267.743L323.219 267.236L321.867 252.563L316.082 253.069L317.433 267.743ZM335.739 249.711C336.712 249.626 337.438 249.835 337.918 250.339C338.413 250.826 338.709 251.595 338.805 252.647L339.864 264.142C339.97 265.289 339.855 266.134 339.52 266.678C339.184 267.221 338.514 267.537 337.51 267.624L333.398 267.984C331.867 268.118 330.914 267.623 330.537 266.5C330.41 266.158 330.326 265.771 330.286 265.341L329.194 253.487C329.096 252.42 329.2 251.632 329.507 251.123C329.852 250.515 330.535 250.166 331.555 250.077L335.739 249.711ZM332.315 266.441L338.101 265.934L336.75 251.261L330.964 251.767L332.315 266.441ZM350.622 248.409C351.594 248.324 352.32 248.533 352.8 249.037C353.295 249.524 353.591 250.293 353.688 251.345L354.747 262.84C354.852 263.987 354.737 264.832 354.402 265.376C354.066 265.919 353.396 266.234 352.392 266.322L348.28 266.682C346.75 266.816 345.796 266.321 345.42 265.198C345.292 264.856 345.208 264.469 345.168 264.039L344.076 252.185C343.978 251.118 344.082 250.33 344.389 249.821C344.735 249.213 345.417 248.864 346.438 248.775L350.622 248.409ZM347.198 265.139L352.984 264.632L351.632 249.958L345.846 250.465L347.198 265.139ZM365.504 247.107C366.476 247.022 367.202 247.231 367.683 247.735C368.177 248.222 368.473 248.991 368.57 250.043L369.629 261.538C369.734 262.685 369.62 263.53 369.284 264.074C368.948 264.617 368.278 264.932 367.274 265.02L363.162 265.38C361.632 265.514 360.678 265.019 360.302 263.896C360.174 263.554 360.09 263.167 360.051 262.737L358.959 250.883C358.86 249.816 358.964 249.028 359.271 248.519C359.617 247.911 360.3 247.562 361.32 247.473L365.504 247.107ZM362.08 263.837L367.866 263.33L366.514 248.656L360.728 249.163L362.08 263.837Z" fill="#707377"/>
</g>
<g filter="url(#filter1_i_227_41)">
<path d="M385.066 313.543C385.165 314.618 384.861 315.541 384.156 316.312C383.45 317.083 382.467 317.524 381.205 317.635C380.527 317.694 379.797 317.684 379.013 317.606C378.242 317.526 377.614 317.393 377.128 317.208L377.491 315.47C378.84 315.874 379.946 316.038 380.81 315.963C381.673 315.887 382.307 315.644 382.711 315.234C383.114 314.811 383.288 314.307 383.234 313.723C383.181 313.139 382.896 312.662 382.38 312.292C381.863 311.922 381.203 311.585 380.398 311.281C379.606 310.962 379.069 310.735 378.789 310.598C378.509 310.462 378.181 310.25 377.807 309.962C377.09 309.449 376.682 308.655 376.583 307.579C376.484 306.504 376.785 305.628 377.486 304.951C378.186 304.274 379.081 303.887 380.171 303.792C381.273 303.696 382.422 303.809 383.616 304.133L383.245 305.772C382.203 305.502 381.29 305.401 380.506 305.469C379.735 305.537 379.179 305.746 378.836 306.097C378.506 306.434 378.364 306.855 378.41 307.359C378.457 307.864 378.709 308.277 379.167 308.598C379.624 308.906 380.215 309.216 380.94 309.527C381.664 309.825 382.195 310.066 382.533 310.251C382.885 310.434 383.268 310.675 383.684 310.973C384.505 311.597 384.965 312.454 385.066 313.543ZM389.505 315.021L395.163 314.526L395.312 316.139L387.74 316.802L386.515 303.498L393.907 302.851L394.055 304.465L388.576 304.944L388.947 308.967L394.107 308.515L394.252 310.089L389.092 310.54L389.505 315.021ZM404.632 305.306C404.746 306.541 404.316 307.475 403.344 308.109C404.223 308.353 404.86 308.732 405.256 309.247C405.663 309.746 405.907 310.428 405.987 311.291C406.098 312.499 405.82 313.48 405.153 314.234C404.486 314.989 403.422 315.43 401.961 315.558L397.916 315.912L396.691 302.608L399.142 302.393C399.925 302.325 400.497 302.282 400.857 302.263C403.175 302.141 404.434 303.155 404.632 305.306ZM398.736 303.874L399.103 307.858L401.055 307.687C401.636 307.596 402.069 307.357 402.355 306.971C402.64 306.571 402.759 306.126 402.714 305.634C402.667 305.13 402.58 304.763 402.452 304.533C402.337 304.302 402.2 304.127 402.042 304.007C401.897 303.886 401.682 303.804 401.397 303.762C400.964 303.72 400.389 303.73 399.672 303.792L398.736 303.874ZM401.434 313.978C403.32 313.813 404.191 312.947 404.047 311.38C403.973 310.583 403.652 310.003 403.083 309.637C402.618 309.25 401.842 309.104 400.753 309.199L399.238 309.331L399.681 314.131L401.434 313.978ZM414.852 310.977L410.17 311.386L409.35 314.911L407.398 315.082L410.536 301.397L412.667 301.21L418.256 314.132L416.324 314.301L414.852 310.977ZM414.277 309.521L411.758 303.117L410.471 309.854L414.277 309.521ZM427.073 309.867C427.172 310.943 426.869 311.866 426.163 312.637C425.458 313.408 424.474 313.849 423.212 313.959C422.535 314.019 421.804 314.009 421.02 313.93C420.25 313.851 419.622 313.718 419.136 313.533L419.498 311.795C420.847 312.199 421.954 312.363 422.817 312.287C423.681 312.212 424.314 311.969 424.718 311.559C425.121 311.136 425.296 310.632 425.242 310.048C425.188 309.463 424.903 308.986 424.387 308.617C423.871 308.247 423.211 307.91 422.406 307.606C421.613 307.287 421.077 307.059 420.797 306.923C420.516 306.787 420.189 306.575 419.814 306.286C419.097 305.774 418.689 304.98 418.59 303.904C418.491 302.829 418.792 301.952 419.493 301.275C420.194 300.598 421.089 300.212 422.178 300.117C423.281 300.021 424.429 300.134 425.624 300.458L425.253 302.097C424.21 301.826 423.297 301.726 422.513 301.794C421.743 301.862 421.186 302.071 420.844 302.422C420.513 302.759 420.371 303.179 420.418 303.684C420.464 304.188 420.717 304.601 421.175 304.923C421.632 305.231 422.222 305.54 422.947 305.852C423.671 306.15 424.202 306.391 424.54 306.576C424.892 306.759 425.276 307 425.692 307.298C426.512 307.922 426.973 308.779 427.073 309.867ZM430.93 301.319L427.463 301.622L427.307 299.929L436.133 299.157L436.289 300.85L432.823 301.153L433.892 312.764L431.999 312.93L430.93 301.319ZM439.969 298.821L441.195 312.125L439.282 312.293L438.056 298.989L439.969 298.821ZM450.381 307.868L445.699 308.278L444.879 311.803L442.926 311.974L446.064 298.288L448.196 298.102L453.785 311.024L451.852 311.193L450.381 307.868ZM449.805 306.413L447.287 300.008L445.999 306.746L449.805 306.413ZM465.491 310L463.538 310.17L456.25 299.947C456.351 300.46 456.429 301.015 456.484 301.613L457.322 310.714L455.509 310.873L454.283 297.569L456.236 297.398L463.524 307.622C463.424 307.109 463.346 306.553 463.291 305.956L462.452 296.854L464.265 296.696L465.491 310ZM472.636 306.865L471.64 296.051L473.553 295.883L474.545 306.658C474.675 308.065 474.52 309.29 474.08 310.332C473.655 311.387 472.806 312.271 471.533 312.984L470.633 311.718C471.564 311.074 472.158 310.4 472.415 309.695C472.671 308.99 472.745 308.047 472.636 306.865ZM483.944 304.932L479.262 305.342L478.442 308.866L476.489 309.037L479.627 295.352L481.759 295.165L487.348 308.087L485.415 308.256L483.944 304.932ZM483.368 303.477L480.85 297.072L479.563 303.81L483.368 303.477ZM496.518 297.849C496.653 299.31 496.326 300.409 495.537 301.147C495.117 301.532 494.635 301.822 494.09 302.017L498.198 306.496L496.854 307.597L492.221 302.441C492.01 302.473 491.679 302.509 491.227 302.548L490.51 302.611L490.985 307.769L489.072 307.936L487.847 294.633L490.995 294.357C492.017 294.268 492.836 294.283 493.449 294.404C494.062 294.511 494.613 294.75 495.102 295.122C495.935 295.732 496.407 296.641 496.518 297.849ZM493.923 300.204C494.457 299.743 494.682 299.067 494.6 298.178C494.518 297.288 494.232 296.651 493.741 296.265C493.234 295.841 492.309 295.688 490.967 295.805L489.891 295.899L490.363 301.018L491.12 300.951C492.581 300.824 493.516 300.575 493.923 300.204ZM506.378 302.969L501.696 303.379L500.876 306.904L498.923 307.075L502.061 293.389L504.193 293.203L509.782 306.125L507.849 306.294L506.378 302.969ZM505.802 301.514L503.284 295.109L501.997 301.847L505.802 301.514Z" fill="#FBF9F9"/>
</g>
<path opacity="0.7" d="M101.283 129.821L102.824 146.551L99.6446 146.829L90.3649 137.402L91.3005 147.559L87.4751 147.893L85.9341 131.164L89.1379 130.884L98.3937 140.313L97.4581 130.156L101.283 129.821ZM118.533 138.744C118.538 138.792 118.545 139.128 118.554 139.754L108.823 140.605C109.072 141.386 109.544 141.98 110.24 142.384C110.936 142.789 111.771 142.949 112.743 142.864C113.412 142.806 113.993 142.658 114.486 142.423C114.993 142.169 115.449 141.808 115.856 141.339L118.039 143.316C116.955 144.808 115.249 145.656 112.922 145.86C111.472 145.987 110.163 145.82 108.996 145.36C107.827 144.884 106.894 144.171 106.196 143.22C105.498 142.269 105.09 141.157 104.973 139.882C104.857 138.623 105.047 137.466 105.545 136.411C106.056 135.338 106.805 134.478 107.789 133.83C108.788 133.164 109.934 132.775 111.225 132.662C112.484 132.552 113.648 132.723 114.718 133.175C115.788 133.628 116.657 134.339 117.325 135.308C118.007 136.26 118.41 137.406 118.533 138.744ZM111.508 135.48C110.664 135.554 109.976 135.855 109.446 136.383C108.917 136.911 108.626 137.595 108.575 138.435L114.911 137.88C114.708 137.079 114.298 136.464 113.681 136.037C113.061 135.593 112.337 135.407 111.508 135.48ZM140.843 130.263L137.366 143.529L133.779 143.842L130.151 136.113L127.898 144.357L124.311 144.671L118.489 132.219L122.003 131.911L125.841 140.345L128.196 131.37L131.352 131.094L135.213 139.525L137.544 130.552L140.843 130.263ZM156.499 124.991C157.981 124.861 159.287 124.996 160.417 125.395C161.562 125.792 162.471 126.42 163.145 127.276C163.818 128.133 164.212 129.182 164.326 130.425C164.439 131.652 164.244 132.753 163.739 133.729C163.233 134.689 162.453 135.464 161.398 136.054C160.359 136.626 159.098 136.978 157.615 137.107L154.244 137.402L154.669 142.015L150.796 142.354L149.255 125.624L156.499 124.991ZM157.109 133.972C158.273 133.87 159.135 133.545 159.695 132.999C160.254 132.436 160.491 131.692 160.405 130.768C160.319 129.828 159.95 129.138 159.299 128.697C158.646 128.24 157.738 128.062 156.574 128.164L153.419 128.44L153.953 134.248L157.109 133.972ZM179.799 133.384C179.804 133.432 179.811 133.768 179.82 134.394L170.089 135.245C170.338 136.026 170.81 136.619 171.506 137.024C172.202 137.429 173.037 137.589 174.009 137.504C174.678 137.446 175.259 137.298 175.752 137.062C176.259 136.809 176.715 136.448 177.122 135.979L179.305 137.956C178.221 139.448 176.515 140.296 174.188 140.5C172.738 140.627 171.429 140.46 170.262 140C169.093 139.524 168.16 138.811 167.462 137.86C166.764 136.909 166.356 135.797 166.239 134.522C166.123 133.263 166.313 132.106 166.811 131.051C167.322 129.978 168.071 129.118 169.055 128.47C170.054 127.804 171.2 127.415 172.491 127.302C173.75 127.192 174.914 127.363 175.984 127.815C177.054 128.268 177.923 128.979 178.591 129.948C179.273 130.9 179.676 132.045 179.799 133.384ZM172.774 130.12C171.929 130.194 171.242 130.495 170.712 131.023C170.183 131.551 169.892 132.235 169.841 133.075L176.177 132.52C175.974 131.719 175.564 131.104 174.946 130.676C174.327 130.233 173.603 130.047 172.774 130.12ZM185.404 128.075C185.794 127.415 186.348 126.892 187.068 126.508C187.803 126.123 188.665 125.887 189.654 125.8L189.971 129.242C189.553 129.246 189.273 129.254 189.129 129.267C188.062 129.36 187.253 129.736 186.703 130.395C186.151 131.037 185.931 131.956 186.041 133.151L186.6 139.221L182.87 139.548L181.686 126.69L185.248 126.378L185.404 128.075ZM204.941 124.655L206.125 137.513L202.587 137.823L202.446 136.293C202.003 136.894 201.453 137.376 200.796 137.738C200.137 138.085 199.409 138.293 198.612 138.363C196.922 138.511 195.538 138.142 194.461 137.257C193.383 136.371 192.756 134.973 192.58 133.061L191.911 125.795L195.64 125.469L196.259 132.185C196.45 134.256 197.414 135.215 199.151 135.063C200.044 134.985 200.735 134.636 201.224 134.015C201.711 133.378 201.902 132.486 201.797 131.339L201.211 124.982L204.941 124.655ZM228.102 126.821C229.087 127.04 229.883 127.484 230.491 128.154C231.097 128.807 231.448 129.652 231.544 130.688C231.679 132.153 231.209 133.335 230.135 134.232C229.075 135.112 227.453 135.647 225.27 135.838L216.615 136.595L215.074 119.866L223.25 119.151C225.291 118.972 226.889 119.226 228.044 119.912C229.216 120.596 229.864 121.608 229.987 122.946C230.062 123.759 229.929 124.501 229.589 125.173C229.266 125.844 228.77 126.393 228.102 126.821ZM219.191 122.445L219.555 126.388L223.404 126.051C224.36 125.968 225.07 125.737 225.533 125.359C225.997 124.981 226.198 124.466 226.138 123.813C226.078 123.159 225.786 122.695 225.263 122.42C224.738 122.128 223.997 122.025 223.041 122.108L219.191 122.445ZM224.714 132.947C225.734 132.858 226.484 132.624 226.963 132.245C227.458 131.864 227.674 131.323 227.609 130.622C227.481 129.236 226.389 128.633 224.333 128.813L219.814 129.208L220.195 133.343L224.714 132.947ZM238.62 121.516C240.612 121.342 242.186 121.686 243.342 122.548C244.497 123.395 245.162 124.774 245.338 126.686L246.014 134.023L242.523 134.329L242.376 132.727C241.784 133.984 240.532 134.695 238.62 134.863C237.632 134.949 236.755 134.857 235.991 134.587C235.243 134.315 234.651 133.901 234.214 133.345C233.777 132.789 233.524 132.137 233.455 131.388C233.345 130.193 233.705 129.214 234.534 128.451C235.38 127.686 236.743 127.221 238.624 127.057L241.588 126.797C241.514 125.985 241.209 125.385 240.676 124.998C240.14 124.595 239.379 124.437 238.39 124.524C237.705 124.583 237.038 124.754 236.389 125.036C235.755 125.3 235.223 125.636 234.795 126.043L233.216 123.555C233.872 123 234.673 122.544 235.621 122.188C236.584 121.831 237.584 121.607 238.62 121.516ZM239.321 132.272C239.959 132.216 240.511 132.023 240.979 131.693C241.445 131.347 241.756 130.878 241.91 130.287L241.789 128.972L239.231 129.196C237.7 129.33 236.982 129.899 237.074 130.902C237.118 131.38 237.337 131.747 237.73 132.001C238.137 132.239 238.668 132.329 239.321 132.272ZM256.006 119.995C257.6 119.856 258.927 120.221 259.987 121.092C261.063 121.962 261.688 123.336 261.861 125.217L262.539 132.577L258.809 132.904L258.184 126.116C258.09 125.097 257.798 124.359 257.306 123.905C256.812 123.434 256.143 123.235 255.299 123.309C254.358 123.392 253.636 123.752 253.133 124.39C252.628 125.013 252.428 125.897 252.534 127.044L253.119 133.402L249.389 133.728L248.205 120.87L251.768 120.559L251.906 122.064C252.35 121.479 252.926 121.011 253.633 120.66C254.338 120.294 255.129 120.072 256.006 119.995ZM270.978 126.756L269.348 128.681L269.65 131.955L265.92 132.282L264.287 114.549L268.016 114.222L268.941 124.26L273.917 118.621L278.364 118.232L273.51 124.149L280.026 131.047L275.507 131.443L270.978 126.756Z" fill="white"/>
<defs>
<filter id="filter0_i_227_41" x="108.35" y="246.864" width="261.578" height="40.665" filterUnits="userSpaceOnUse" color-interpolation-filters="sRGB">
<feFlood flood-opacity="0" result="BackgroundImageFix"/>
<feBlend mode="normal" in="SourceGraphic" in2="BackgroundImageFix" result="shape"/>
<feColorMatrix in="SourceAlpha" type="matrix" values="0 0 0 0 0 0 0 0 0 0 0 0 0 0 0 0 0 0 127 0" result="hardAlpha"/>
<feOffset/>
<feGaussianBlur stdDeviation="0.723864"/>
<feComposite in2="hardAlpha" operator="arithmetic" k2="-1" k3="1"/>
<feColorMatrix type="matrix" values="0 0 0 0 0.945098 0 0 0 0 0.956863 0 0 0 0 0.996078 0 0 0 0.95 0"/>
<feBlend mode="normal" in2="shape" result="effect1_innerShadow_227_41"/>
</filter>
<filter id="filter1_i_227_41" x="375.927" y="292.562" width="134.176" height="28.6494" filterUnits="userSpaceOnUse" color-interpolation-filters="sRGB">
<feFlood flood-opacity="0" result="BackgroundImageFix"/>
<feBlend mode="normal" in="SourceGraphic" in2="BackgroundImageFix" result="shape"/>
<feColorMatrix in="SourceAlpha" type="matrix" values="0 0 0 0 0 0 0 0 0 0 0 0 0 0 0 0 0 0 127 0" result="hardAlpha"/>
<feOffset/>
<feGaussianBlur stdDeviation="0.361932"/>
<feComposite in2="hardAlpha" operator="arithmetic" k2="-1" k3="1"/>
<feColorMatrix type="matrix" values="0 0 0 0 0.945098 0 0 0 0 0.956863 0 0 0 0 0.996078 0 0 0 1 0"/>
<feBlend mode="normal" in2="shape" result="effect1_innerShadow_227_41"/>
</filter>
<linearGradient id="paint0_linear_227_41" x1="29.8675" y1="263.881" x2="565.603" y2="169.416" gradientUnits="userSpaceOnUse">
<stop stop-color="#074884"/>
<stop offset="1" stop-color="#530655"/>
</linearGradient>
<linearGradient id="paint1_linear_227_41" x1="26.764" y1="240.568" x2="568.694" y2="193.155" gradientUnits="userSpaceOnUse">
<stop stop-color="#005BAE"/>
<stop offset="1" stop-color="#9C039F"/>
</linearGradient>
<linearGradient id="paint2_linear_227_41" x1="48.6803" y1="238.65" x2="546.778" y2="195.073" gradientUnits="userSpaceOnUse">
<stop stop-color="#0B85F5"/>
<stop offset="1" stop-color="#CA0FCE"/>
</linearGradient>
<linearGradient id="paint3_linear_227_41" x1="-1.19686" y1="3.32688" x2="55.9712" y2="55.5877" gradientUnits="userSpaceOnUse">
<stop offset="0.00596827" stop-color="#FFDBB0"/>
<stop offset="1" stop-color="#FFC580"/>
</linearGradient>
</defs>
</svg>
