<svg width="400" height="240" viewBox="0 0 400 240" fill="none" xmlns="http://www.w3.org/2000/svg">
<path d="M0 20C0 8.95432 8.95432 0 20 0H380C391.046 0 400 8.95432 400 20V220C400 231.046 391.046 240 380 240H20C8.95432 240 0 231.046 0 220V20Z" fill="url(#paint0_linear_308_2)"/>
<path d="M73.2681 67L54.6291 67C44.8928 67 37.0362 74.8927 37.0809 84.6289C37.1256 94.3651 45.0546 102.258 54.7909 102.258L73.4299 102.258C83.1661 102.258 91.0228 94.3651 90.9781 84.6289C90.9334 74.8927 83.0044 67 73.2681 67Z" fill="url(#paint1_linear_308_2)"/>
<path opacity="0.8" fill-rule="evenodd" clip-rule="evenodd" d="M64.4464 79.6392L64.3884 67H63.5082L63.5662 79.6392H57.1907L56.3847 79.076C52.936 76.6664 48.8339 75.3744 44.636 75.3744H37.0381L37.0422 76.2544H44.64C48.6572 76.2544 52.5826 77.4912 55.8828 79.7968L56.6148 80.308L56.6326 84.1888H37.0786L37.0826 85.0688H56.6366L56.6544 88.9488L55.9272 89.46C52.6482 91.7664 48.7341 93.0032 44.7169 93.0032H37.119L37.123 93.8832H44.7209C48.9189 93.8832 53.0091 92.5904 56.4357 90.1808L57.2365 89.6184H63.612L63.67 102.258H64.5502L64.4922 89.6184H70.8944L74.1525 91.3896C77.1613 93.0256 80.5293 93.8832 83.9469 93.8832H91.0205L91.0165 93.0032H83.9429C80.6717 93.0032 77.4493 92.1824 74.5701 90.6168L71.4434 88.9168L71.4258 85.0688H90.9797L90.9757 84.1888H71.4218L71.4041 80.3408L74.5149 78.64C77.3797 77.0744 80.5949 76.2544 83.8661 76.2544H90.9397L90.9357 75.3744H83.8621C80.4437 75.3744 77.0845 76.2312 74.0901 77.8672L70.8486 79.6392H64.4464ZM70.5247 80.5192H57.496L57.5337 88.7376H70.5624L70.5247 80.5192Z" fill="#7A6245"/>
<path d="M320.013 46.8687H337.864L337.994 75.3161H320.143L320.013 46.8687Z" fill="#FF5F00"/>
<path d="M321.917 61.0949C321.903 58.3558 322.527 55.6519 323.742 53.1882C324.958 50.7245 326.733 48.5649 328.934 46.8745C326.189 44.777 322.898 43.4724 319.437 43.1107C315.976 42.7482 312.485 43.3435 309.363 44.8271C306.241 46.3107 303.613 48.6233 301.781 51.5006C299.949 54.3779 298.985 57.703 299 61.0977C299.016 64.4915 300.01 67.8176 301.869 70.6949C303.728 73.5722 306.377 75.8848 309.513 77.3684C312.649 78.852 316.145 79.4464 319.602 79.0847C323.06 78.7231 326.339 77.4185 329.065 75.321C326.848 73.6297 325.052 71.4691 323.814 69.0045C322.575 66.5398 321.927 63.835 321.917 61.0949Z" fill="#EB001B"/>
<path d="M359 61.0951C359.016 64.4898 358.052 67.8159 356.219 70.6932C354.387 73.5705 351.758 75.8831 348.636 77.3667C345.513 78.8494 342.022 79.4438 338.561 79.0812C335.1 78.7187 331.809 77.414 329.064 75.3165C331.264 73.6234 333.039 71.4638 334.255 69C335.471 66.5354 336.096 63.8324 336.084 61.0924C336.071 58.3532 335.421 55.6493 334.182 53.1856C332.944 50.7219 331.149 48.5623 328.934 46.8691C331.659 44.7707 334.939 43.466 338.396 43.1035C341.853 42.7409 345.351 43.3353 348.487 44.8189C351.623 46.3025 354.272 48.6151 356.131 51.4924C357.99 54.3697 358.984 57.6958 359 61.0905V61.0951Z" fill="#F79E1B"/>
<path opacity="0.7" d="M49.3264 29.8064L49.3881 43.2462H46.8345L40.0962 35.0863L40.1337 43.2462H37.0617L37 29.8064H39.5728L46.2918 37.9663L46.2544 29.8064H49.3264ZM62.4516 38.1199C62.4518 38.1583 62.4338 38.427 62.3977 38.9262H54.5833C54.727 39.5662 55.0622 40.0718 55.5886 40.443C56.1152 40.8142 56.7688 40.9998 57.5496 40.9998C58.0872 40.9998 58.5605 40.923 58.9694 40.7694C59.391 40.603 59.7802 40.347 60.137 40.0014L61.7386 41.7294C60.7709 42.843 59.3526 43.3998 57.4838 43.3998C56.319 43.3998 55.2876 43.1758 54.3895 42.7278C53.4914 42.267 52.7974 41.6334 52.3072 40.827C51.8171 40.0206 51.5698 39.1054 51.565 38.0815C51.5604 37.0703 51.793 36.1615 52.263 35.3551C52.7456 34.5359 53.4018 33.9023 54.2318 33.4543C55.0745 32.9935 56.0142 32.7631 57.051 32.7631C58.0622 32.7631 58.9784 32.9807 59.7996 33.4159C60.6208 33.8511 61.2637 34.4783 61.7282 35.2975C62.2056 36.1039 62.4466 37.0447 62.4516 38.1199ZM57.0806 35.0287C56.4022 35.0287 55.8335 35.2207 55.3745 35.6047C54.9154 35.9887 54.6362 36.5135 54.5369 37.1791H59.6249C59.5195 36.5263 59.2355 36.0079 58.773 35.6239C58.3103 35.2271 57.7462 35.0287 57.0806 35.0287ZM80.8233 32.9167L77.1266 43.2462H74.2466L71.8939 36.8335L69.5234 43.2462H66.6434L62.8711 32.9167H65.6935L68.164 39.9054L70.6663 32.9167H73.2007L75.6904 39.9054L78.1735 32.9167H80.8233ZM93.6673 29.8064C94.8577 29.8064 95.8897 30.0048 96.7617 30.4016C97.6465 30.7983 98.3273 31.3615 98.8049 32.0911C99.2817 32.8207 99.5225 33.6847 99.5265 34.6831C99.5313 35.6687 99.2985 36.5327 98.8281 37.2751C98.3577 38.0047 97.6825 38.5678 96.8009 38.9646C95.9321 39.3486 94.9025 39.5406 93.7121 39.5406H91.0049L91.0225 43.2462H87.9121L87.8497 29.8064H93.6673ZM93.5281 37.0063C94.4625 37.0063 95.1721 36.8079 95.6561 36.4111C96.1409 36.0015 96.3817 35.4255 96.3777 34.6831C96.3745 33.9279 96.1289 33.3519 95.6401 32.9551C95.1521 32.5455 94.4409 32.3407 93.5065 32.3407H90.9721L90.9937 37.0063H93.5281ZM111.651 38.1199C111.652 38.1583 111.634 38.427 111.598 38.9262H103.783C103.927 39.5662 104.262 40.0718 104.789 40.443C105.315 40.8142 105.969 40.9998 106.75 40.9998C107.287 40.9998 107.76 40.923 108.17 40.7694C108.591 40.603 108.98 40.347 109.337 40.0014L110.938 41.7294C109.971 42.843 108.553 43.3998 106.684 43.3998C105.519 43.3998 104.487 43.1758 103.59 42.7278C102.691 42.267 101.998 41.6334 101.507 40.827C101.017 40.0206 100.77 39.1054 100.765 38.0815C100.76 37.0703 100.993 36.1615 101.463 35.3551C101.946 34.5359 102.602 33.9023 103.432 33.4543C104.274 32.9935 105.214 32.7631 106.251 32.7631C107.262 32.7631 108.178 32.9807 108.999 33.4159C109.821 33.8511 110.464 34.4783 110.928 35.2975C111.406 36.1039 111.646 37.0447 111.651 38.1199ZM106.281 35.0287C105.602 35.0287 105.034 35.2207 104.574 35.6047C104.115 35.9887 103.836 36.5135 103.737 37.1791H108.825C108.719 36.5263 108.435 36.0079 107.973 35.6239C107.51 35.2271 106.946 35.0287 106.281 35.0287ZM116.489 34.2799C116.845 33.7807 117.323 33.4031 117.924 33.1471C118.537 32.8911 119.24 32.7631 120.034 32.7631L120.046 35.5279C119.714 35.5023 119.49 35.4895 119.374 35.4895C118.517 35.4895 117.846 35.7327 117.362 36.2191C116.878 36.6927 116.638 37.4095 116.642 38.3694L116.664 43.2462H113.669L113.622 32.9167H116.482L116.489 34.2799ZM132.297 32.9167L132.344 43.2462H129.502L129.497 42.0174C129.102 42.4654 128.63 42.811 128.081 43.0542C127.532 43.2846 126.937 43.3998 126.297 43.3998C124.94 43.3998 123.863 43.0094 123.066 42.2286C122.269 41.4478 121.866 40.2894 121.86 38.7534L121.833 32.9167H124.828L124.853 38.3118C124.861 39.9758 125.562 40.8078 126.957 40.8078C127.674 40.8078 128.249 40.5774 128.682 40.1166C129.115 39.643 129.33 38.9454 129.325 38.0239L129.302 32.9167H132.297ZM150.605 36.2575C151.374 36.5007 151.977 36.9103 152.415 37.4863C152.853 38.0495 153.074 38.747 153.078 39.579C153.083 40.7566 152.626 41.6654 151.707 42.3054C150.802 42.9326 149.472 43.2462 147.718 43.2462H140.768L140.706 29.8064H147.273C148.911 29.8064 150.167 30.12 151.04 30.7471C151.926 31.3743 152.372 32.2255 152.377 33.3007C152.38 33.9535 152.222 34.5359 151.905 35.0479C151.6 35.5599 151.166 35.9631 150.605 36.2575ZM143.808 32.1487L143.822 35.3167H146.914C147.682 35.3167 148.264 35.1823 148.659 34.9135C149.054 34.6447 149.251 34.2479 149.249 33.7231C149.246 33.1983 149.046 32.8079 148.648 32.5519C148.25 32.2831 147.667 32.1487 146.899 32.1487H143.808ZM147.477 40.9038C148.296 40.9038 148.91 40.7694 149.318 40.5006C149.74 40.2318 149.949 39.8158 149.946 39.2526C149.942 38.1391 149.113 37.5823 147.462 37.5823H143.833L143.848 40.9038H147.477ZM159.356 32.7631C160.956 32.7631 162.186 33.1471 163.048 33.9151C163.909 34.6703 164.343 35.8159 164.35 37.3519L164.377 43.2462H161.574L161.568 41.9598C161.01 42.9198 159.962 43.3998 158.426 43.3998C157.632 43.3998 156.94 43.2654 156.35 42.9966C155.773 42.7278 155.33 42.3566 155.021 41.883C154.711 41.4094 154.555 40.8718 154.552 40.2702C154.548 39.3102 154.902 38.555 155.617 38.0047C156.344 37.4543 157.463 37.1791 158.974 37.1791H161.354C161.351 36.5263 161.15 36.0271 160.752 35.6815C160.354 35.3231 159.758 35.1439 158.964 35.1439C158.414 35.1439 157.87 35.2335 157.333 35.4127C156.809 35.5791 156.362 35.8095 155.992 36.1039L154.907 34.0111C155.469 33.6143 156.139 33.3071 156.919 33.0895C157.712 32.8719 158.524 32.7631 159.356 32.7631ZM159.166 41.3838C159.678 41.3838 160.131 41.2686 160.527 41.0382C160.922 40.795 161.202 40.443 161.367 39.9822L161.362 38.9262H159.308C158.079 38.9262 157.466 39.3294 157.47 40.1358C157.472 40.5198 157.621 40.827 157.916 41.0574C158.224 41.275 158.641 41.3838 159.166 41.3838ZM173.318 32.7631C174.598 32.7631 175.63 33.1471 176.414 33.9151C177.212 34.6831 177.614 35.8223 177.621 37.3327L177.648 43.2462H174.653L174.628 37.7935C174.624 36.9743 174.442 36.3663 174.082 35.9695C173.722 35.5599 173.202 35.3551 172.524 35.3551C171.769 35.3551 171.168 35.5919 170.722 36.0655C170.276 36.5263 170.055 37.2175 170.06 38.1391L170.083 43.2462H167.088L167.041 32.9167H169.902L169.907 34.1263C170.302 33.6911 170.793 33.3583 171.381 33.1279C171.968 32.8847 172.614 32.7631 173.318 32.7631ZM184.779 39.195L183.346 40.6158L183.358 43.2462H180.363L180.298 29H183.293L183.33 37.0639L187.688 32.9167H191.259L186.978 37.2943L191.691 43.2462H188.062L184.779 39.195Z" fill="white"/>
<defs>
<linearGradient id="paint0_linear_308_2" x1="2.98023e-06" y1="120" x2="400" y2="120" gradientUnits="userSpaceOnUse">
<stop stop-color="#0B85F5"/>
<stop offset="1" stop-color="#CA0FCE"/>
</linearGradient>
<linearGradient id="paint1_linear_308_2" x1="36.0547" y1="69.6615" x2="81.9981" y2="111.451" gradientUnits="userSpaceOnUse">
<stop offset="0.00596827" stop-color="#FFDBB0"/>
<stop offset="1" stop-color="#FFC580"/>
</linearGradient>
</defs>
</svg>
