<svg width="420" height="250" viewBox="0 0 420 250" fill="none" xmlns="http://www.w3.org/2000/svg">
<rect width="419.741" height="250" rx="25" transform="matrix(1 0 0.00103115 0.999999 0.432678 0.611572)" fill="url(#paint0_linear_19_76)" fill-opacity="0.6"/>
<path d="M395.329 250.612L98.0955 250.612C332.034 219.112 385.19 156.612 415.163 10.6116C417.174 13.1116 420.192 18.43 420.2 25.6116L420.407 225.612C420.421 239.112 409.54 250.612 395.329 250.612Z" fill="#6E1670" fill-opacity="0.4"/>
<rect width="60.887" height="39.6657" rx="5.79092" transform="matrix(1 4.34704e-10 0.00564211 0.999984 34.2899 82.9614)" fill="url(#paint1_linear_19_76)"/>
<path opacity="0.8" d="M56.96 97.6759L64.8164 97.6759M56.96 97.6759L56.9889 102.794M56.96 97.6759L50.0586 92.8777L34.3458 92.8777M72.6727 97.6759L64.8164 97.6759M72.6727 97.6759L72.7016 102.794M72.6727 97.6759L81.4841 92.8777L95.2328 92.8777M72.7305 107.912L64.8741 107.912M72.7305 107.912L72.7016 102.794M72.7305 107.912L81.596 112.71L95.3447 112.71M57.0177 107.912L64.8741 107.912M57.0177 107.912L56.9889 102.794M57.0177 107.912L50.1705 112.71L34.4577 112.71M64.8164 97.6759L64.7333 82.9614M64.8741 107.912L64.9571 122.627M72.7016 102.794L95.2887 102.794M56.9889 102.794L34.4018 102.794" stroke="#7A6245" stroke-width="1.10027"/>
<path d="M335.494 37.9053L356.153 37.9053L356.338 70.69L335.679 70.69L335.494 37.9053Z" fill="#FF5F00"/>
<path d="M337.715 54.3005C337.694 51.1436 338.413 48.0275 339.817 45.1881C341.221 42.3486 343.273 39.8602 345.818 37.911C342.639 35.4939 338.828 33.9908 334.823 33.5735C330.817 33.1563 326.778 33.8418 323.166 35.5516C319.555 37.2614 316.517 39.9266 314.4 43.2426C312.282 46.5585 311.171 50.3915 311.193 54.3034C311.215 58.2152 312.37 62.0482 314.524 65.3641C316.679 68.6801 319.747 71.3453 323.378 73.0551C327.009 74.765 331.056 75.4504 335.057 75.0332C339.058 74.616 342.851 73.1129 346.003 70.6957C343.435 68.746 341.354 66.2566 339.919 63.416C338.483 60.5755 337.729 57.4583 337.715 54.3004L337.715 54.3005Z" fill="#EB001B"/>
<path d="M378.653 67.2209L378.649 66.5492L378.947 66.5492L378.946 66.4102L378.237 66.4102L378.237 66.5492L378.518 66.5492L378.522 67.221L378.653 67.2209ZM380.03 67.2209L380.025 66.4103L379.811 66.4103L379.564 66.9893L379.31 66.4102L379.095 66.4102L379.1 67.2209L379.255 67.2209L379.251 66.6071L379.487 67.1341L379.648 67.1341L379.877 66.6071L379.881 67.2209L380.03 67.2209Z" fill="#F79E1B"/>
<path d="M380.63 54.3005C380.652 58.2126 379.54 62.0458 377.423 65.3619C375.305 68.678 372.267 71.3431 368.655 73.0527C365.043 74.7623 361.003 75.4473 356.997 75.0295C352.991 74.6116 349.181 73.1078 346.002 70.6898C348.546 68.739 350.598 66.2499 352.002 63.4102C353.406 60.5706 354.126 57.4547 354.109 54.2975C354.091 51.1403 353.335 48.0244 351.899 45.1848C350.463 42.3452 348.383 39.856 345.817 37.9052C348.969 35.4872 352.762 33.9834 356.763 33.5656C360.764 33.1477 364.812 33.8327 368.443 35.5423C372.074 37.2519 375.143 39.9171 377.298 43.2332C379.453 46.5493 380.608 50.3825 380.63 54.2947L380.63 54.3005Z" fill="#F79E1B"/>
<g filter="url(#filter0_i_19_76)">
<path d="M36.1975 174.321L37.8295 174.321L37.7465 159.61L35.4425 159.61L35.4331 157.954L37.4971 157.954C38.3131 157.954 38.8821 158.13 39.2041 158.482C39.5421 158.834 39.713 159.346 39.7168 160.018L39.7975 174.321L41.2855 174.321L41.2947 175.953L36.2067 175.953L36.1975 174.321ZM46.7808 171.609C46.7734 170.297 47.2002 169.369 48.0611 168.825L54.9489 164.529L54.921 159.586L48.609 159.586L48.6255 162.513L46.7535 162.513L46.7278 157.954L53.7118 157.954C54.8958 157.954 55.7289 158.162 56.2113 158.578C56.6615 158.962 56.8895 159.682 56.8955 160.737L56.9113 163.545C56.9176 164.649 56.53 165.441 55.7487 165.921L48.6462 170.433L48.6681 174.321L54.9801 174.321L54.9677 172.113L56.9837 172.113L57.0053 175.953L46.8053 175.953L46.7808 171.609ZM71.6584 159.586L65.8114 165.441L68.9074 165.441C69.9634 165.441 70.6926 165.657 71.0951 166.089C71.4814 166.505 71.6775 167.225 71.6832 168.249L71.7086 172.737C71.7115 173.265 71.6822 173.737 71.6205 174.153C71.5588 174.553 71.4087 174.881 71.1701 175.137C70.7092 175.681 69.7907 175.953 68.4147 175.953L64.7667 175.953C63.0067 175.953 62.0429 175.281 61.8753 173.937C61.8251 173.537 61.7987 173.113 61.7962 172.665L61.789 171.393L63.541 171.393L63.5583 174.465L69.7743 174.465L69.7322 167.001L63.5162 167.001L63.5074 165.441L69.4264 159.586L63.4744 159.586L63.4838 161.265L61.7318 161.265L61.7131 157.954L71.6491 157.954L71.6584 159.586ZM80.5416 174.321L83.1816 174.321L83.1647 171.321L75.5567 171.321L83.0653 157.954L85.0093 157.954L85.0755 169.689L86.8035 169.689L86.8127 171.321L85.0847 171.321L85.1016 174.321L86.8296 174.321L86.8388 175.953L80.5508 175.953L80.5416 174.321ZM83.1094 161.529L78.4995 169.689L83.1555 169.689L83.1094 161.529ZM109.893 164.985C110.805 164.985 111.422 165.185 111.744 165.585C112.018 165.937 112.158 166.513 112.162 167.313L112.194 173.049C112.2 173.961 112.067 174.593 111.797 174.945C111.543 175.297 111.225 175.553 110.841 175.713C110.474 175.873 109.979 175.953 109.355 175.953L104.891 175.953C103.355 175.953 102.48 175.377 102.265 174.225C102.199 173.873 102.165 173.489 102.163 173.073L102.153 171.393L104.025 171.393L104.042 174.321L110.258 174.321L110.214 166.617L102.39 166.617L102.341 157.954L111.389 157.954L111.398 159.586L104.222 159.586L104.253 164.985L109.893 164.985ZM124.996 159.466L118.876 159.466L118.909 165.321L124.141 165.321C125.741 165.321 126.696 165.857 127.006 166.929C127.104 167.265 127.154 167.633 127.156 168.033L127.183 172.905C127.189 173.961 126.93 174.737 126.405 175.233C125.879 175.713 125.017 175.953 123.817 175.953L120.289 175.953C119.057 175.953 118.199 175.721 117.717 175.257C117.234 174.777 116.99 174.017 116.984 172.977L116.915 160.809C116.908 159.482 117.423 158.61 118.46 158.194C118.828 158.034 119.267 157.954 119.779 157.954L124.195 157.954C125.507 157.954 126.278 158.53 126.509 159.682C126.591 160.018 126.633 160.377 126.635 160.761L126.638 161.289L125.006 161.289L124.996 159.466ZM125.182 166.977L118.918 166.977L118.959 174.321L125.223 174.321L125.182 166.977ZM133.714 175.953L131.53 175.953L139.646 159.586L133.166 159.586L133.186 163.161L131.458 163.161L131.428 157.954L141.388 157.954L141.402 160.401L133.714 175.953ZM154.984 163.905C154.987 164.529 154.838 165.049 154.537 165.465C154.251 165.881 153.924 166.105 153.557 166.137C154.005 166.169 154.422 166.393 154.808 166.809C155.259 167.289 155.486 167.905 155.491 168.657L155.514 172.737C155.52 173.793 155.26 174.593 154.735 175.137C154.21 175.681 153.348 175.953 152.148 175.953L148.62 175.953C147.388 175.953 146.53 175.681 146.047 175.137C145.564 174.577 145.32 173.777 145.314 172.737L145.291 168.729C145.287 167.961 145.523 167.329 146 166.833C146.366 166.417 146.781 166.185 147.245 166.137C146.892 166.105 146.555 165.881 146.233 165.465C145.91 165.033 145.747 164.513 145.744 163.905L145.726 160.809C145.719 159.482 146.202 158.61 147.176 158.194C147.527 158.034 147.958 157.954 148.47 157.954L152.238 157.954C153.166 157.954 153.872 158.234 154.355 158.794C154.758 159.274 154.962 159.946 154.966 160.809L154.984 163.905ZM153.514 167.121L147.25 167.121L147.291 174.321L153.555 174.321L153.514 167.121ZM147.6 165.321L153.144 165.321L153.111 159.466L147.567 159.466L147.6 165.321ZM173.091 174.393L179.355 174.393L179.318 167.793L174.086 167.793C172.454 167.793 171.499 167.257 171.221 166.185C171.123 165.849 171.073 165.481 171.071 165.081L171.048 161.001C171.042 159.946 171.301 159.178 171.827 158.698C172.352 158.202 173.214 157.954 174.414 157.954L177.942 157.954C179.174 157.954 180.032 158.194 180.514 158.674C180.997 159.138 181.241 159.89 181.247 160.929L181.316 173.097C181.32 173.897 181.1 174.577 180.655 175.137C180.21 175.681 179.476 175.953 178.452 175.953L173.892 175.953C172.98 175.953 172.274 175.681 171.775 175.137C171.341 174.657 171.121 173.993 171.116 173.145L171.113 172.617L173.081 172.617L173.091 174.393ZM173.045 166.137L179.309 166.137L179.272 159.586L173.008 159.586L173.045 166.137ZM193.144 157.954C194.12 157.954 194.825 158.226 195.26 158.77C195.711 159.298 195.94 160.089 195.946 161.145L196.011 172.689C196.017 173.841 195.83 174.673 195.449 175.185C195.068 175.697 194.373 175.953 193.365 175.953L189.237 175.953C187.701 175.953 186.794 175.377 186.516 174.225C186.418 173.873 186.367 173.481 186.365 173.049L186.298 161.145C186.292 160.073 186.463 159.298 186.813 158.818C187.209 158.242 187.92 157.954 188.944 157.954L193.144 157.954ZM188.292 174.321L194.1 174.321L194.017 159.586L188.209 159.586L188.292 174.321ZM208.083 157.954C209.059 157.954 209.764 158.226 210.199 158.77C210.65 159.298 210.879 160.089 210.885 161.145L210.95 172.689C210.956 173.841 210.769 174.673 210.388 175.185C210.007 175.697 209.312 175.953 208.304 175.953L204.176 175.953C202.64 175.953 201.733 175.377 201.455 174.225C201.357 173.873 201.306 173.481 201.304 173.049L201.237 161.145C201.231 160.073 201.402 159.298 201.752 158.818C202.148 158.242 202.859 157.954 203.883 157.954L208.083 157.954ZM203.231 174.321L209.039 174.321L208.956 159.586L203.148 159.586L203.231 174.321ZM223.022 157.954C223.998 157.954 224.703 158.226 225.138 158.77C225.589 159.298 225.818 160.089 225.824 161.145L225.889 172.689C225.895 173.841 225.708 174.673 225.327 175.185C224.946 175.697 224.251 175.953 223.243 175.953L219.115 175.953C217.579 175.953 216.672 175.377 216.394 174.225C216.296 173.873 216.245 173.481 216.243 173.049L216.176 161.145C216.17 160.073 216.341 159.298 216.691 158.818C217.087 158.242 217.798 157.954 218.822 157.954L223.022 157.954ZM218.17 174.321L223.978 174.321L223.895 159.586L218.087 159.586L218.17 174.321ZM248.752 157.954C249.728 157.954 250.433 158.226 250.868 158.77C251.319 159.298 251.548 160.089 251.554 161.145L251.619 172.689C251.625 173.841 251.438 174.673 251.057 175.185C250.676 175.697 249.981 175.953 248.973 175.953L244.845 175.953C243.309 175.953 242.402 175.377 242.123 174.225C242.025 173.873 241.975 173.481 241.973 173.049L241.906 161.145C241.899 160.073 242.071 159.298 242.42 158.818C242.817 158.242 243.528 157.954 244.552 157.954L248.752 157.954ZM243.9 174.321L249.708 174.321L249.625 159.586L243.817 159.586L243.9 174.321ZM263.691 157.954C264.667 157.954 265.372 158.226 265.807 158.77C266.258 159.298 266.487 160.089 266.493 161.145L266.558 172.689C266.564 173.841 266.377 174.673 265.996 175.185C265.615 175.697 264.92 175.953 263.912 175.953L259.784 175.953C258.248 175.953 257.341 175.377 257.062 174.225C256.964 173.873 256.914 173.481 256.912 173.049L256.845 161.145C256.839 160.073 257.01 159.298 257.359 158.818C257.756 158.242 258.467 157.954 259.491 157.954L263.691 157.954ZM258.839 174.321L264.647 174.321L264.564 159.586L258.756 159.586L258.839 174.321ZM278.63 157.954C279.606 157.954 280.311 158.226 280.746 158.77C281.197 159.298 281.426 160.089 281.432 161.145L281.497 172.689C281.503 173.841 281.316 174.673 280.935 175.185C280.554 175.697 279.859 175.953 278.851 175.953L274.723 175.953C273.187 175.953 272.28 175.377 272.001 174.225C271.903 173.873 271.853 173.481 271.851 173.049L271.784 161.145C271.778 160.073 271.949 159.298 272.299 158.818C272.695 158.242 273.406 157.954 274.43 157.954L278.63 157.954ZM273.778 174.321L279.586 174.321L279.503 159.586L273.695 159.586L273.778 174.321ZM293.569 157.954C294.545 157.954 295.25 158.226 295.685 158.77C296.136 159.298 296.365 160.089 296.371 161.145L296.436 172.689C296.442 173.841 296.255 174.673 295.874 175.185C295.493 175.697 294.798 175.953 293.79 175.953L289.662 175.953C288.126 175.953 287.219 175.377 286.941 174.225C286.843 173.873 286.792 173.481 286.79 173.049L286.723 161.145C286.717 160.073 286.888 159.298 287.238 158.818C287.634 158.242 288.345 157.954 289.369 157.954L293.569 157.954ZM288.717 174.321L294.525 174.321L294.442 159.586L288.634 159.586L288.717 174.321Z" fill="#707377"/>
</g>
<g filter="url(#filter1_i_19_76)">
<path d="M269.068 220.005C269.074 221.085 268.692 221.978 267.923 222.685C267.153 223.391 266.135 223.745 264.869 223.745C264.189 223.745 263.462 223.671 262.687 223.525C261.927 223.378 261.312 223.191 260.844 222.965L261.355 221.265C262.664 221.785 263.752 222.045 264.619 222.045C265.486 222.045 266.138 221.858 266.576 221.485C267.014 221.098 267.231 220.611 267.228 220.025C267.224 219.438 266.982 218.938 266.499 218.525C266.017 218.111 265.388 217.718 264.613 217.345C263.85 216.958 263.336 216.685 263.068 216.525C262.8 216.365 262.492 216.125 262.144 215.805C261.474 215.231 261.136 214.405 261.13 213.325C261.124 212.245 261.499 211.398 262.256 210.785C263.012 210.171 263.937 209.865 265.03 209.865C266.137 209.865 267.272 210.078 268.434 210.505L267.923 212.105C266.908 211.745 266.007 211.565 265.22 211.565C264.447 211.565 263.874 211.725 263.503 212.045C263.144 212.351 262.967 212.758 262.97 213.265C262.972 213.771 263.188 214.205 263.617 214.565C264.046 214.911 264.608 215.271 265.303 215.645C265.998 216.005 266.507 216.291 266.828 216.505C267.162 216.718 267.524 216.991 267.913 217.325C268.676 218.018 269.061 218.911 269.068 220.005ZM273.363 221.865L279.043 221.865L279.052 223.485L271.452 223.485L271.377 210.125L278.797 210.125L278.806 211.745L273.306 211.745L273.329 215.785L278.509 215.785L278.517 217.365L273.337 217.365L273.363 221.865ZM289.27 213.505C289.277 214.745 288.769 215.638 287.746 216.185C288.601 216.505 289.203 216.938 289.553 217.485C289.916 218.018 290.1 218.718 290.105 219.585C290.112 220.798 289.75 221.751 289.021 222.445C288.292 223.138 287.193 223.485 285.727 223.485L281.667 223.485L281.591 210.125L284.051 210.125C284.838 210.125 285.411 210.131 285.772 210.145C288.092 210.225 289.258 211.345 289.27 213.505ZM283.52 211.565L283.542 215.565L285.502 215.565C286.089 215.525 286.541 215.325 286.859 214.965C287.177 214.591 287.334 214.158 287.331 213.665C287.329 213.158 287.273 212.785 287.165 212.545C287.07 212.305 286.949 212.118 286.802 211.985C286.668 211.851 286.461 211.751 286.18 211.685C285.753 211.605 285.18 211.565 284.46 211.565L283.52 211.565ZM285.338 221.865C287.231 221.865 288.173 221.078 288.164 219.505C288.16 218.705 287.89 218.098 287.354 217.685C286.925 217.258 286.164 217.045 285.07 217.045L283.55 217.045L283.578 221.865L285.338 221.865ZM298.965 220.045L294.265 220.045L293.144 223.485L291.184 223.485L295.489 210.125L297.629 210.125L302.084 223.485L300.144 223.485L298.965 220.045ZM298.516 218.545L296.559 211.945L294.696 218.545L298.516 218.545ZM311.236 220.005C311.242 221.085 310.86 221.978 310.091 222.685C309.321 223.391 308.303 223.745 307.037 223.745C306.357 223.745 305.63 223.671 304.855 223.525C304.095 223.378 303.48 223.191 303.012 222.965L303.523 221.265C304.832 221.785 305.92 222.045 306.787 222.045C307.654 222.045 308.306 221.858 308.744 221.485C309.182 221.098 309.399 220.611 309.396 220.025C309.392 219.438 309.15 218.938 308.667 218.525C308.185 218.111 307.556 217.718 306.781 217.345C306.018 216.958 305.504 216.685 305.236 216.525C304.968 216.365 304.66 216.125 304.312 215.805C303.642 215.231 303.304 214.405 303.298 213.325C303.292 212.245 303.667 211.398 304.424 210.785C305.18 210.171 306.105 209.865 307.198 209.865C308.305 209.865 309.44 210.078 310.602 210.505L310.091 212.105C309.076 211.745 308.175 211.565 307.388 211.565C306.615 211.565 306.042 211.725 305.671 212.045C305.312 212.351 305.135 212.758 305.138 213.265C305.14 213.771 305.356 214.205 305.785 214.565C306.214 214.911 306.776 215.271 307.471 215.645C308.166 216.005 308.675 216.291 308.996 216.505C309.33 216.718 309.692 216.991 310.08 217.325C310.844 218.018 311.229 218.911 311.236 220.005ZM315.814 211.825L312.334 211.825L312.325 210.125L321.185 210.125L321.194 211.825L317.714 211.825L317.78 223.485L315.88 223.485L315.814 211.825ZM325.035 210.125L325.11 223.485L323.19 223.485L323.115 210.125L325.035 210.125ZM334.629 220.045L329.929 220.045L328.808 223.485L326.848 223.485L331.153 210.125L333.293 210.125L337.748 223.485L335.808 223.485L334.629 220.045ZM334.18 218.545L332.223 211.945L330.36 218.545L334.18 218.545ZM349.499 223.485L347.539 223.485L341.158 212.665C341.215 213.185 341.244 213.745 341.248 214.345L341.299 223.485L339.479 223.485L339.404 210.125L341.364 210.125L347.745 220.945C347.689 220.425 347.659 219.865 347.655 219.265L347.604 210.125L349.424 210.125L349.499 223.485ZM356.888 220.985L356.827 210.125L358.747 210.125L358.808 220.945C358.816 222.358 358.556 223.565 358.028 224.565C357.514 225.578 356.592 226.385 355.262 226.985L354.474 225.645C355.458 225.085 356.108 224.465 356.424 223.785C356.74 223.105 356.895 222.171 356.888 220.985ZM368.32 220.045L363.62 220.045L362.5 223.485L360.54 223.485L364.844 210.125L366.984 210.125L371.44 223.485L369.5 223.485L368.32 220.045ZM367.872 218.545L365.915 211.945L364.052 218.545L367.872 218.545ZM381.458 214.085C381.466 215.551 381.045 216.618 380.196 217.285C379.744 217.631 379.239 217.878 378.68 218.025L382.387 222.845L380.953 223.825L376.781 218.285C376.568 218.298 376.235 218.305 375.781 218.305L375.061 218.305L375.091 223.485L373.171 223.485L373.095 210.125L376.255 210.125C377.282 210.125 378.096 210.211 378.697 210.385C379.298 210.545 379.826 210.831 380.282 211.245C381.059 211.925 381.451 212.871 381.458 214.085ZM378.67 216.205C379.241 215.791 379.524 215.138 379.519 214.245C379.514 213.351 379.283 212.691 378.827 212.265C378.358 211.798 377.45 211.565 376.103 211.565L375.023 211.565L375.052 216.705L375.812 216.705C377.279 216.705 378.232 216.538 378.67 216.205ZM390.84 220.045L386.14 220.045L385.019 223.485L383.059 223.485L387.364 210.125L389.504 210.125L393.959 223.485L392.019 223.485L390.84 220.045ZM390.391 218.545L388.434 211.945L386.571 218.545L390.391 218.545Z" fill="#FBF9F9"/>
</g>
<path opacity="0.7" d="M41.557 32.1928L41.6518 48.9926L38.4598 48.9926L30.0262 38.7927L30.0838 48.9926L26.2438 48.9926L26.149 32.1928L29.365 32.1928L37.7745 42.3927L37.717 32.1928L41.557 32.1928ZM57.9744 42.5847C57.9747 42.6327 57.9526 42.9686 57.9081 43.5926L48.1401 43.5926C48.3206 44.3926 48.7402 45.0246 49.3988 45.4886C50.0574 45.9526 50.8747 46.1846 51.8507 46.1846C52.5227 46.1846 53.1142 46.0886 53.6251 45.8966C54.1519 45.6886 54.6381 45.3686 55.0837 44.9366L57.0879 47.0966C55.8797 48.4886 54.1077 49.1846 51.7717 49.1846C50.3157 49.1846 49.0261 48.9046 47.9029 48.3446C46.7797 47.7686 45.9112 46.9766 45.2975 45.9686C44.6838 44.9606 44.3734 43.8166 44.3662 42.5367C44.359 41.2727 44.6486 40.1367 45.2349 39.1287C45.8372 38.1047 46.6567 37.3127 47.6935 36.7527C48.7463 36.1768 49.9207 35.8888 51.2167 35.8888C52.4807 35.8888 53.6262 36.1608 54.6533 36.7047C55.6803 37.2487 56.4848 38.0327 57.0665 39.0567C57.6642 40.0647 57.9669 41.2407 57.9744 42.5847ZM51.2566 38.7207C50.4086 38.7207 49.698 38.9607 49.1247 39.4407C48.5514 39.9207 48.2031 40.5767 48.0798 41.4087L54.4398 41.4087C54.3072 40.5927 53.9515 39.9447 53.3728 39.4647C52.794 38.9687 52.0886 38.7207 51.2566 38.7207ZM80.932 36.0808L76.3248 48.9926L72.7248 48.9926L69.7756 40.9767L66.8208 48.9926L63.2208 48.9926L58.492 36.0808L62.02 36.0808L65.1173 44.8166L68.236 36.0808L71.404 36.0808L74.5253 44.8166L77.62 36.0808L80.932 36.0808ZM96.9835 32.1928C98.4715 32.1928 99.7609 32.4408 100.852 32.9368C101.958 33.4328 102.81 34.1368 103.408 35.0488C104.005 35.9608 104.307 37.0407 104.314 38.2887C104.321 39.5207 104.031 40.6007 103.444 41.5287C102.857 42.4407 102.013 43.1446 100.912 43.6406C99.8268 44.1206 98.5401 44.3606 97.0521 44.3606L93.6681 44.3606L93.6943 48.9926L89.8063 48.9926L89.7115 32.1928L96.9835 32.1928ZM96.8183 41.1927C97.9863 41.1927 98.8729 40.9447 99.4781 40.4487C100.083 39.9367 100.383 39.2167 100.378 38.2887C100.373 37.3447 100.064 36.6248 99.4537 36.1288C98.8428 35.6168 97.9534 35.3608 96.7854 35.3608L93.6174 35.3608L93.6503 41.1927L96.8183 41.1927ZM119.474 42.5847C119.475 42.6327 119.453 42.9686 119.408 43.5926L109.64 43.5926C109.821 44.3926 110.24 45.0246 110.899 45.4886C111.557 45.9526 112.375 46.1846 113.351 46.1846C114.023 46.1846 114.614 46.0886 115.125 45.8966C115.652 45.6886 116.138 45.3686 116.584 44.9366L118.588 47.0966C117.38 48.4886 115.608 49.1846 113.272 49.1846C111.816 49.1846 110.526 48.9046 109.403 48.3446C108.28 47.7686 107.411 46.9766 106.798 45.9686C106.184 44.9606 105.873 43.8166 105.866 42.5367C105.859 41.2727 106.149 40.1367 106.735 39.1287C107.337 38.1047 108.157 37.3127 109.194 36.7527C110.246 36.1768 111.421 35.8888 112.717 35.8888C113.981 35.8888 115.126 36.1608 116.153 36.7047C117.18 37.2487 117.985 38.0327 118.567 39.0567C119.164 40.0647 119.467 41.2407 119.474 42.5847ZM112.757 38.7207C111.909 38.7207 111.198 38.9607 110.625 39.4407C110.051 39.9207 109.703 40.5767 109.58 41.4087L115.94 41.4087C115.807 40.5927 115.452 39.9447 114.873 39.4647C114.294 38.9687 113.589 38.7207 112.757 38.7207ZM125.516 37.7847C125.96 37.1607 126.558 36.6887 127.308 36.3688C128.074 36.0488 128.953 35.8888 129.945 35.8888L129.965 39.3447C129.549 39.3127 129.269 39.2967 129.125 39.2967C128.053 39.2967 127.214 39.6007 126.61 40.2087C126.005 40.8007 125.706 41.6967 125.713 42.8967L125.747 48.9926L122.003 48.9926L121.93 36.0808L125.506 36.0808L125.516 37.7847ZM145.274 36.0808L145.347 48.9926L141.795 48.9926L141.786 47.4566C141.294 48.0166 140.704 48.4486 140.018 48.7526C139.331 49.0406 138.588 49.1846 137.788 49.1846C136.092 49.1846 134.745 48.6966 133.748 47.7206C132.75 46.7446 132.246 45.2966 132.235 43.3766L132.194 36.0808L135.938 36.0808L135.976 42.8247C135.988 44.9046 136.866 45.9446 138.61 45.9446C139.506 45.9446 140.224 45.6566 140.765 45.0806C141.306 44.4886 141.573 43.6166 141.566 42.4647L141.53 36.0808L145.274 36.0808ZM168.163 40.2567C169.125 40.5607 169.88 41.0727 170.428 41.7927C170.976 42.4967 171.253 43.3686 171.259 44.4086C171.267 45.8806 170.697 47.0166 169.55 47.8166C168.418 48.6006 166.757 48.9926 164.565 48.9926L155.877 48.9926L155.782 32.1928L163.99 32.1928C166.038 32.1928 167.608 32.5848 168.7 33.3688C169.809 34.1528 170.367 35.2168 170.374 36.5608C170.379 37.3767 170.183 38.1047 169.787 38.7447C169.406 39.3847 168.865 39.8887 168.163 40.2567ZM159.662 35.1208L159.685 39.0807L163.549 39.0807C164.509 39.0807 165.236 38.9127 165.73 38.5767C166.224 38.2407 166.469 37.7447 166.465 37.0887C166.462 36.4328 166.211 35.9448 165.713 35.6248C165.215 35.2888 164.486 35.1208 163.526 35.1208L159.662 35.1208ZM164.26 46.0646C165.284 46.0646 166.051 45.8966 166.561 45.5606C167.087 45.2246 167.348 44.7046 167.344 44.0006C167.337 42.6087 166.301 41.9127 164.237 41.9127L159.701 41.9127L159.724 46.0646L164.26 46.0646ZM179.098 35.8888C181.098 35.8888 182.637 36.3688 183.714 37.3287C184.792 38.2727 185.336 39.7047 185.347 41.6247L185.388 48.9926L181.884 48.9926L181.875 47.3846C181.178 48.5846 179.869 49.1846 177.949 49.1846C176.957 49.1846 176.092 49.0166 175.354 48.6806C174.632 48.3446 174.078 47.8806 173.691 47.2886C173.303 46.6966 173.107 46.0246 173.103 45.2726C173.096 44.0726 173.539 43.1286 174.431 42.4407C175.339 41.7527 176.737 41.4087 178.625 41.4087L181.601 41.4087C181.597 40.5927 181.345 39.9687 180.847 39.5367C180.348 39.0887 179.603 38.8647 178.611 38.8647C177.923 38.8647 177.244 38.9767 176.573 39.2007C175.918 39.4087 175.36 39.6967 174.898 40.0647L173.539 37.4487C174.24 36.9527 175.078 36.5688 176.053 36.2968C177.043 36.0248 178.058 35.8888 179.098 35.8888ZM178.871 46.6646C179.511 46.6646 180.078 46.5206 180.573 46.2326C181.067 45.9286 181.416 45.4886 181.621 44.9126L181.614 43.5926L179.046 43.5926C177.51 43.5926 176.745 44.0966 176.75 45.1046C176.753 45.5846 176.939 45.9686 177.309 46.2566C177.694 46.5286 178.215 46.6646 178.871 46.6646ZM196.551 35.8888C198.151 35.8888 199.441 36.3688 200.423 37.3287C201.42 38.2887 201.924 39.7127 201.935 41.6007L201.977 48.9926L198.233 48.9926L198.194 42.1767C198.188 41.1527 197.96 40.3927 197.509 39.8967C197.058 39.3847 196.409 39.1287 195.561 39.1287C194.617 39.1287 193.867 39.4247 193.31 40.0167C192.753 40.5927 192.478 41.4567 192.485 42.6087L192.521 48.9926L188.777 48.9926L188.704 36.0808L192.28 36.0808L192.288 37.5927C192.781 37.0487 193.395 36.6328 194.129 36.3448C194.864 36.0408 195.671 35.8888 196.551 35.8888ZM210.886 43.9286L209.096 45.7046L209.114 48.9926L205.37 48.9926L205.27 31.1848L209.014 31.1848L209.071 41.2647L214.514 36.0808L218.978 36.0808L213.632 41.5527L219.53 48.9926L214.994 48.9926L210.886 43.9286Z" fill="white"/>
<defs>
<filter id="filter0_i_19_76" x="35.4332" y="157.954" width="261.021" height="17.9998" filterUnits="userSpaceOnUse" color-interpolation-filters="sRGB">
<feFlood flood-opacity="0" result="BackgroundImageFix"/>
<feBlend mode="normal" in="SourceGraphic" in2="BackgroundImageFix" result="shape"/>
<feColorMatrix in="SourceAlpha" type="matrix" values="0 0 0 0 0 0 0 0 0 0 0 0 0 0 0 0 0 0 127 0" result="hardAlpha"/>
<feOffset/>
<feGaussianBlur stdDeviation="0.723864"/>
<feComposite in2="hardAlpha" operator="arithmetic" k2="-1" k3="1"/>
<feColorMatrix type="matrix" values="0 0 0 0 0.945098 0 0 0 0 0.956863 0 0 0 0 0.996078 0 0 0 0.95 0"/>
<feBlend mode="normal" in2="shape" result="effect1_innerShadow_19_76"/>
</filter>
<filter id="filter1_i_19_76" x="260.77" y="209.865" width="133.209" height="17.1199" filterUnits="userSpaceOnUse" color-interpolation-filters="sRGB">
<feFlood flood-opacity="0" result="BackgroundImageFix"/>
<feBlend mode="normal" in="SourceGraphic" in2="BackgroundImageFix" result="shape"/>
<feColorMatrix in="SourceAlpha" type="matrix" values="0 0 0 0 0 0 0 0 0 0 0 0 0 0 0 0 0 0 127 0" result="hardAlpha"/>
<feOffset/>
<feGaussianBlur stdDeviation="0.361932"/>
<feComposite in2="hardAlpha" operator="arithmetic" k2="-1" k3="1"/>
<feColorMatrix type="matrix" values="0 0 0 0 0.945098 0 0 0 0 0.956863 0 0 0 0 0.996078 0 0 0 1 0"/>
<feBlend mode="normal" in2="shape" result="effect1_innerShadow_19_76"/>
</filter>
<linearGradient id="paint0_linear_19_76" x1="0" y1="125" x2="419.741" y2="125" gradientUnits="userSpaceOnUse">
<stop stop-color="#0B85F5"/>
<stop offset="1" stop-color="#CA0FCE"/>
</linearGradient>
<linearGradient id="paint1_linear_19_76" x1="-1.08166" y1="2.99421" x2="50.3885" y2="50.2421" gradientUnits="userSpaceOnUse">
<stop offset="0.00596827" stop-color="#FFDBB0"/>
<stop offset="1" stop-color="#FFC580"/>
</linearGradient>
</defs>
</svg>
